<?xml version="1.0" encoding="utf-8"?>
<!-- Generator: Adobe Illustrator 27.5.0, SVG Export Plug-In . SVG Version: 6.00 Build 0)  -->
<svg version="1.1" xmlns="http://www.w3.org/2000/svg" xmlns:xlink="http://www.w3.org/1999/xlink" x="0px" y="0px"
	 viewBox="0 0 500 500" style="enable-background:new 0 0 500 500;" xml:space="preserve">
<g id="Background_Simple">
	<g>
		<path style="fill:#92E3A9;" d="M492.758,267.788c0.082-1.078,0.167-2.15,0.306-3.219c1.497-11.491,8.481-97.868-100.024-206.503
			c-116.617-116.757-244.061,14.382-266.075,48.66s-28.427,86.918-45.419,52.279c-10.505-21.414,16.876-48.228-21.908-37.027
			c-24.884,7.186-71.103,70.778-33.215,180.04s144.305,192.614,246.575,186.534c131.514-7.818,208.952-103.196,202.805-110.287
			c-6.147-7.091-55.13,14.063-44.368-0.671C442.029,363.09,489.667,308.329,492.758,267.788z"/>
		<path style="opacity:0.8;fill:#FFFFFF;" d="M492.758,267.788c0.082-1.078,0.167-2.15,0.306-3.219
			c1.497-11.491,8.481-97.868-100.024-206.503c-116.617-116.757-244.061,14.382-266.075,48.66s-28.427,86.918-45.419,52.279
			c-10.505-21.414,16.876-48.228-21.908-37.027c-24.884,7.186-71.103,70.778-33.215,180.04s144.305,192.614,246.575,186.534
			c131.514-7.818,208.952-103.196,202.805-110.287c-6.147-7.091-55.13,14.063-44.368-0.671
			C442.029,363.09,489.667,308.329,492.758,267.788z"/>
	</g>
</g>
<g id="Device">
	<g>
		<path style="fill:#FFFFFF;stroke:#263238;stroke-miterlimit:10;" d="M438.252,404.346H40.935v-22.914
			c0-6.957,5.64-12.597,12.597-12.597h372.123c6.957,0,12.597,5.64,12.597,12.597V404.346z"/>
		<line style="fill:none;stroke:#263238;stroke-miterlimit:10;" x1="3.899" y1="462.761" x2="495.729" y2="462.761"/>
		<g>
			<path style="fill:#92E3A9;stroke:#263238;stroke-linecap:round;stroke-linejoin:round;stroke-miterlimit:10;" d="
				M335.729,378.089c0,1.677-1.36,3.036-3.036,3.036c-1.677,0-3.036-1.359-3.036-3.036c0-1.677,1.359-3.036,3.036-3.036
				C334.369,375.052,335.729,376.412,335.729,378.089z"/>
			<path style="fill:#FFFFFF;stroke:#263238;stroke-miterlimit:10;" d="M345.39,378.089c0,1.677-1.36,3.036-3.036,3.036
				c-1.677,0-3.037-1.359-3.037-3.036c0-1.677,1.36-3.036,3.037-3.036C344.031,375.052,345.39,376.412,345.39,378.089z"/>
			<path style="fill:#92E3A9;stroke:#263238;stroke-linecap:round;stroke-linejoin:round;stroke-miterlimit:10;" d="
				M355.051,378.089c0,1.677-1.359,3.036-3.036,3.036c-1.677,0-3.036-1.359-3.036-3.036c0-1.677,1.359-3.036,3.036-3.036
				C353.692,375.052,355.051,376.412,355.051,378.089z"/>
			<path style="fill:#263238;stroke:#263238;stroke-linecap:round;stroke-linejoin:round;stroke-miterlimit:10;" d="
				M364.713,378.089c0,1.677-1.359,3.036-3.036,3.036s-3.036-1.359-3.036-3.036c0-1.677,1.359-3.036,3.036-3.036
				S364.713,376.412,364.713,378.089z"/>
		</g>
		<g>
			<path style="fill:#92E3A9;stroke:#263238;stroke-linecap:round;stroke-linejoin:round;stroke-miterlimit:10;" d="
				M407.171,378.089c0,1.677-1.359,3.036-3.036,3.036s-3.036-1.359-3.036-3.036c0-1.677,1.359-3.036,3.036-3.036
				S407.171,376.412,407.171,378.089z"/>
			<path style="fill:#263238;stroke:#263238;stroke-linecap:round;stroke-linejoin:round;stroke-miterlimit:10;" d="
				M416.832,378.089c0,1.677-1.359,3.036-3.036,3.036s-3.036-1.359-3.036-3.036c0-1.677,1.359-3.036,3.036-3.036
				S416.832,376.412,416.832,378.089z"/>
			<path style="fill:#92E3A9;stroke:#263238;stroke-linecap:round;stroke-linejoin:round;stroke-miterlimit:10;" d="
				M407.171,387.054c0,1.677-1.359,3.036-3.036,3.036s-3.036-1.359-3.036-3.036s1.359-3.036,3.036-3.036
				S407.171,385.377,407.171,387.054z"/>
			<path style="fill:#263238;stroke:#263238;stroke-linecap:round;stroke-linejoin:round;stroke-miterlimit:10;" d="
				M416.832,387.054c0,1.677-1.359,3.036-3.036,3.036s-3.036-1.359-3.036-3.036s1.359-3.036,3.036-3.036
				S416.832,385.377,416.832,387.054z"/>
		</g>
		<g>
			<path style="fill:#92E3A9;stroke:#263238;stroke-linecap:round;stroke-linejoin:round;stroke-miterlimit:10;" d="M92.019,378.089
				c0,1.677-1.36,3.036-3.036,3.036c-1.677,0-3.036-1.359-3.036-3.036c0-1.677,1.359-3.036,3.036-3.036
				C90.66,375.052,92.019,376.412,92.019,378.089z"/>
			<path style="fill:#263238;stroke:#263238;stroke-linecap:round;stroke-linejoin:round;stroke-miterlimit:10;" d="
				M101.681,378.089c0,1.677-1.36,3.036-3.036,3.036c-1.677,0-3.036-1.359-3.036-3.036c0-1.677,1.359-3.036,3.036-3.036
				C100.321,375.052,101.681,376.412,101.681,378.089z"/>
			<path style="fill:#92E3A9;stroke:#263238;stroke-linecap:round;stroke-linejoin:round;stroke-miterlimit:10;" d="M92.019,387.054
				c0,1.677-1.36,3.036-3.036,3.036c-1.677,0-3.036-1.359-3.036-3.036s1.359-3.036,3.036-3.036
				C90.66,384.018,92.019,385.377,92.019,387.054z"/>
			<path style="fill:#263238;stroke:#263238;stroke-linecap:round;stroke-linejoin:round;stroke-miterlimit:10;" d="
				M101.681,387.054c0,1.677-1.36,3.036-3.036,3.036c-1.677,0-3.036-1.359-3.036-3.036s1.359-3.036,3.036-3.036
				C100.321,384.018,101.681,385.377,101.681,387.054z"/>
		</g>
		<g>
			<rect x="380.447" y="371.188" style="fill:#FFFFFF;stroke:#263238;stroke-miterlimit:10;" width="4.417" height="19.875"/>
			
				<rect x="380.659" y="378.701" style="fill:#263238;stroke:#263238;stroke-linecap:round;stroke-linejoin:round;stroke-miterlimit:10;" width="4.154" height="5.816"/>
		</g>
		<g>
			<rect x="387.094" y="371.188" style="fill:#FFFFFF;stroke:#263238;stroke-miterlimit:10;" width="4.417" height="19.875"/>
			
				<rect x="387.305" y="374.34" style="fill:#263238;stroke:#263238;stroke-linecap:round;stroke-linejoin:round;stroke-miterlimit:10;" width="4.154" height="5.816"/>
		</g>
		<g>
			<rect x="393.74" y="371.188" style="fill:#FFFFFF;stroke:#263238;stroke-miterlimit:10;" width="4.417" height="19.875"/>
			
				<rect x="393.952" y="381.817" style="fill:#263238;stroke:#263238;stroke-linecap:round;stroke-linejoin:round;stroke-miterlimit:10;" width="4.154" height="5.816"/>
		</g>
		<g>
			<path style="fill:#FFFFFF;stroke:#263238;stroke-miterlimit:10;" d="M319.344,388.265H159.842V365.35
				c0-6.957,5.64-12.597,12.597-12.597h134.307c6.957,0,12.597,5.64,12.597,12.597V388.265z"/>
			<path style="fill:#FFFFFF;stroke:#263238;stroke-miterlimit:10;" d="M177.484,379.725c0,1.677-1.359,3.036-3.036,3.036
				s-3.036-1.359-3.036-3.036s1.359-3.036,3.036-3.036S177.484,378.048,177.484,379.725z"/>
			<g>
				<path style="fill:#263238;" d="M311.54,367.145c0-3.443-2.791-6.234-6.234-6.234s-6.234,2.791-6.234,6.234
					c0,3.443,2.791,6.234,6.234,6.234S311.54,370.588,311.54,367.145z"/>
				<g>
					
						<line style="fill:none;stroke:#263238;stroke-width:0.5;stroke-miterlimit:10;" x1="305.371" y1="357.976" x2="305.371" y2="359.841"/>
					
						<line style="fill:none;stroke:#263238;stroke-width:0.5;stroke-miterlimit:10;" x1="305.371" y1="374.449" x2="305.371" y2="376.314"/>
				</g>
				<g>
					
						<line style="fill:none;stroke:#263238;stroke-width:0.5;stroke-miterlimit:10;" x1="296.202" y1="367.145" x2="298.067" y2="367.145"/>
					
						<line style="fill:none;stroke:#263238;stroke-width:0.5;stroke-miterlimit:10;" x1="312.675" y1="367.145" x2="314.54" y2="367.145"/>
				</g>
				<g>
					
						<line style="fill:none;stroke:#263238;stroke-width:0.5;stroke-miterlimit:10;" x1="311.854" y1="360.662" x2="310.536" y2="361.98"/>
					
						<line style="fill:none;stroke:#263238;stroke-width:0.5;stroke-miterlimit:10;" x1="300.206" y1="372.31" x2="298.888" y2="373.628"/>
				</g>
				<g>
					
						<line style="fill:none;stroke:#263238;stroke-width:0.5;stroke-miterlimit:10;" x1="298.888" y1="360.662" x2="300.206" y2="361.98"/>
					
						<line style="fill:none;stroke:#263238;stroke-width:0.5;stroke-miterlimit:10;" x1="310.536" y1="372.31" x2="311.854" y2="373.628"/>
				</g>
			</g>
			
				<rect x="167.833" y="364.089" style="fill:#92E3A9;stroke:#263238;stroke-linecap:round;stroke-linejoin:round;stroke-miterlimit:10;" width="13.531" height="9.622"/>
		</g>
		<g>
			<rect x="189.034" y="309.116" style="fill:#263238;stroke:#263238;stroke-miterlimit:10;" width="101.118" height="72.829"/>
			
				<rect x="194.694" y="314.501" style="fill:#92E3A9;stroke:#263238;stroke-linecap:round;stroke-linejoin:round;stroke-miterlimit:10;" width="89.799" height="62.059"/>
		</g>
		<g>
			<rect x="203.613" y="354.036" style="fill:#FFFFFF;stroke:#263238;stroke-miterlimit:10;" width="74.407" height="4.072"/>
			<rect x="203.613" y="354.036" style="fill:#263238;" width="40.72" height="4.072"/>
		</g>
		<polygon style="fill:#FFFFFF;stroke:#263238;stroke-linecap:round;stroke-linejoin:round;stroke-miterlimit:10;" points="
			261.399,374.049 217.787,374.049 212.336,389.428 266.851,389.428 		"/>
		<g>
			
				<rect x="17.684" y="393.289" style="fill:#8A8A8A;stroke:#263238;stroke-linecap:round;stroke-linejoin:round;stroke-miterlimit:10;" width="444.055" height="69.473"/>
			<polygon style="fill:#B8B8B8;stroke:#263238;stroke-linecap:round;stroke-linejoin:round;stroke-miterlimit:10;" points="
				17.684,393.289 132.051,454.899 352.393,454.899 461.739,393.289 			"/>
			<path style="fill:#FFFFFF;stroke:#263238;stroke-miterlimit:10;" d="M107.779,387.061v36.112h56.761
				c4.172,0,8.058-2.12,10.316-5.628l6.42-9.972c2.262-3.514,6.155-5.638,10.335-5.638h95.967c4.179,0,8.072,2.124,10.335,5.638
				l6.42,9.972c2.258,3.508,6.144,5.628,10.316,5.628h56.761v-36.112H107.779z"/>
			<rect x="107.779" y="387.061" style="fill:#263238;stroke:#263238;stroke-miterlimit:10;" width="263.63" height="11.864"/>
			<path style="fill:#FFFFFF;stroke:#263238;stroke-miterlimit:10;" d="M372.032,395.187H107.155c-1.696,0-3.071-1.375-3.071-3.071
				v-1.983c0-1.696,1.375-3.071,3.071-3.071h264.878c1.696,0,3.071,1.375,3.071,3.071v1.983
				C375.103,393.812,373.728,395.187,372.032,395.187z"/>
		</g>
		<g>
			<polygon style="fill:#FFFFFF;stroke:#263238;stroke-miterlimit:10;" points="124.92,440.529 110.804,440.529 107.779,423.173 
				127.945,423.173 			"/>
			<polygon style="fill:#FFFFFF;stroke:#263238;stroke-miterlimit:10;" points="368.329,440.529 354.212,440.529 351.187,423.173 
				371.354,423.173 			"/>
		</g>
		<path style="fill:#263238;stroke:#263238;stroke-miterlimit:10;" d="M164.084,415.995h-47.165c-1.028,0-1.862-0.833-1.862-1.862
			v-10.478c0-1.028,0.834-1.862,1.862-1.862h47.165c1.028,0,1.862,0.833,1.862,1.862v10.478
			C165.946,415.161,165.113,415.995,164.084,415.995z"/>
		<path style="fill:#263238;stroke:#263238;stroke-miterlimit:10;" d="M361.653,415.995h-47.165c-1.028,0-1.862-0.833-1.862-1.862
			v-10.478c0-1.028,0.833-1.862,1.862-1.862h47.165c1.028,0,1.862,0.833,1.862,1.862v10.478
			C363.515,415.161,362.681,415.995,361.653,415.995z"/>
		<g>
			<path style="fill:#263238;stroke:#263238;stroke-linecap:round;stroke-linejoin:round;stroke-miterlimit:10;" d="
				M135.141,375.514h-19.896c-0.769,0-1.393-0.624-1.393-1.393v0c0-0.769,0.624-1.393,1.393-1.393h19.896
				c0.769,0,1.393,0.624,1.393,1.393v0C136.534,374.891,135.911,375.514,135.141,375.514z"/>
			<path style="fill:#263238;stroke:#263238;stroke-linecap:round;stroke-linejoin:round;stroke-miterlimit:10;" d="M135.141,382.08
				h-19.896c-0.769,0-1.393-0.624-1.393-1.393l0,0c0-0.769,0.624-1.393,1.393-1.393h19.896c0.769,0,1.393,0.624,1.393,1.393l0,0
				C136.534,381.457,135.911,382.08,135.141,382.08z"/>
		</g>
	</g>
</g>
<g id="Text">
	<g>
		<path style="fill:#263238;" d="M212.827,344.984v-11.741h-2.136v-2.102h7.075v2.102h-2.102v11.741H212.827z"/>
		<path style="fill:#263238;" d="M219.013,344.984v-13.843h6.033v1.948h-3.213v3.674h2.478v1.966h-2.478v4.341h3.247v1.914H219.013z
			"/>
		<path style="fill:#263238;" d="M230.087,345.172c-0.854,0-1.567-0.157-2.136-0.471c-0.57-0.313-0.999-0.786-1.29-1.418
			c-0.29-0.633-0.459-1.438-0.504-2.419l2.427-0.41c0.022,0.57,0.083,1.046,0.18,1.428c0.096,0.382,0.245,0.666,0.444,0.854
			c0.199,0.188,0.447,0.281,0.743,0.281c0.364,0,0.612-0.113,0.744-0.342c0.13-0.228,0.196-0.489,0.196-0.786
			c0-0.581-0.14-1.067-0.418-1.461c-0.28-0.393-0.647-0.788-1.103-1.188l-1.436-1.248c-0.513-0.433-0.931-0.923-1.256-1.47
			c-0.325-0.547-0.487-1.219-0.487-2.017c0-1.139,0.333-2.014,1-2.623c0.667-0.609,1.581-0.914,2.743-0.914
			c0.695,0,1.265,0.114,1.709,0.342c0.444,0.228,0.789,0.532,1.034,0.914c0.245,0.382,0.415,0.798,0.513,1.248
			c0.096,0.45,0.156,0.896,0.179,1.341l-2.41,0.359c-0.023-0.421-0.06-0.792-0.111-1.111c-0.051-0.318-0.154-0.569-0.308-0.752
			c-0.154-0.182-0.385-0.273-0.692-0.273c-0.331,0-0.576,0.123-0.735,0.368c-0.16,0.245-0.239,0.516-0.239,0.811
			c0,0.49,0.111,0.892,0.333,1.205c0.222,0.314,0.526,0.641,0.914,0.982l1.401,1.23c0.581,0.502,1.079,1.074,1.496,1.718
			c0.416,0.643,0.624,1.438,0.624,2.384c0,0.649-0.148,1.236-0.444,1.76c-0.296,0.524-0.709,0.935-1.239,1.23
			C231.429,345.024,230.805,345.172,230.087,345.172z"/>
		<path style="fill:#263238;" d="M236.427,344.984v-11.741h-2.136v-2.102h7.075v2.102h-2.102v11.741H236.427z"/>
		<path style="fill:#263238;" d="M242.648,344.984v-13.843h2.803v13.843H242.648z"/>
		<path style="fill:#263238;" d="M247.569,344.984v-13.843h1.965l3.076,7.212v-7.212h2.324v13.843h-1.88l-3.076-7.656v7.656H247.569
			z"/>
		<path style="fill:#263238;" d="M260.575,345.189c-0.935,0-1.675-0.196-2.222-0.59c-0.547-0.393-0.938-0.951-1.17-1.675
			c-0.234-0.723-0.351-1.563-0.351-2.52v-4.632c0-0.991,0.12-1.846,0.359-2.564c0.239-0.718,0.658-1.27,1.256-1.657
			c0.598-0.387,1.41-0.581,2.435-0.581c0.991,0,1.774,0.165,2.35,0.495c0.575,0.331,0.988,0.798,1.239,1.401
			c0.251,0.604,0.376,1.322,0.376,2.153v0.804h-2.751v-0.975c0-0.364-0.023-0.686-0.068-0.965c-0.046-0.279-0.151-0.498-0.316-0.658
			c-0.166-0.159-0.431-0.239-0.795-0.239c-0.376,0-0.649,0.097-0.82,0.29c-0.171,0.194-0.279,0.442-0.325,0.744
			c-0.046,0.302-0.068,0.623-0.068,0.965v6.136c0,0.388,0.034,0.734,0.102,1.042c0.068,0.308,0.197,0.547,0.385,0.718
			c0.188,0.171,0.458,0.257,0.812,0.257c0.353,0,0.626-0.091,0.82-0.273c0.193-0.182,0.327-0.43,0.402-0.743
			c0.074-0.313,0.111-0.669,0.111-1.068v-1.47h-1.35v-1.709h3.897v7.109h-1.846l-0.171-1.248c-0.183,0.422-0.456,0.77-0.82,1.043
			C261.68,345.052,261.19,345.189,260.575,345.189z"/>
		<path style="fill:#263238;" d="M266.573,344.984v-2.513h2.461v2.513H266.573z"/>
		<path style="fill:#263238;" d="M270.538,344.984v-2.513h2.461v2.513H270.538z"/>
		<path style="fill:#263238;" d="M274.503,344.984v-2.513h2.461v2.513H274.503z"/>
	</g>
</g>
<g id="Code">
	<g>
		<path style="fill:#263238;" d="M330.794,319.953l-11.909-8.412v-4.456l11.909-8.495v4.497l-8.536,6.205l8.536,6.205V319.953z"/>
		<path style="fill:#263238;" d="M334.417,321.452l9.078-33.729h3.873l-9.119,33.729H334.417z"/>
		<path style="fill:#263238;" d="M350.989,319.953v-4.456l8.578-6.246l-8.578-6.163v-4.497l11.951,8.453v4.456L350.989,319.953z"/>
	</g>
</g>
<g id="Sign">
	<g>
		<path style="fill:#92E3A9;stroke:#263238;stroke-linecap:round;stroke-linejoin:round;stroke-miterlimit:10;" d="M426.346,107.004
			l-29.725,51.485c-0.613,1.061,0.153,2.387,1.378,2.387h59.45c1.225,0,1.991-1.326,1.378-2.387l-29.725-51.485
			C428.49,105.943,426.959,105.943,426.346,107.004z M429.294,111.868l25.365,43.463c0.719,1.232-0.158,2.788-1.57,2.788h-50.73
			c-1.412,0-2.289-1.556-1.57-2.788l25.365-43.463C426.86,110.658,428.588,110.658,429.294,111.868z"/>
		
			<rect x="425.045" y="124.537" style="fill:#92E3A9;stroke:#263238;stroke-linecap:round;stroke-linejoin:round;stroke-miterlimit:10;" width="5.359" height="20.721"/>
		
			<rect x="425.045" y="148.473" style="fill:#92E3A9;stroke:#263238;stroke-linecap:round;stroke-linejoin:round;stroke-miterlimit:10;" width="5.359" height="4.644"/>
	</g>
</g>
<g id="Gears">
	<path style="fill:#92E3A9;stroke:#263238;stroke-linecap:round;stroke-linejoin:round;stroke-miterlimit:10;" d="M154.26,86.496
		v-9.008l-11.554-1.8c-0.727-3.62-2.109-7.001-4.011-10.022l6.997-9.579l-6.37-6.37l-9.447,6.9
		c-2.976-1.979-6.325-3.437-9.919-4.254l-1.826-11.72h-9.008l-1.8,11.554c-3.62,0.727-7.001,2.109-10.022,4.011l-9.579-6.997
		l-6.37,6.37l6.9,9.446c-1.979,2.976-3.437,6.325-4.255,9.919l-11.72,1.826v9.009l11.554,1.8c0.727,3.62,2.109,7,4.011,10.022
		l-6.997,9.579l6.37,6.37l9.446-6.9c2.976,1.979,6.325,3.437,9.919,4.255l1.826,11.72h9.009l1.8-11.554
		c3.62-0.727,7-2.109,10.022-4.011l9.579,6.997l6.37-6.37l-6.9-9.447c1.979-2.976,3.437-6.325,4.254-9.919L154.26,86.496z
		 M113.269,102.284c-11.404,0-20.65-9.245-20.65-20.65c0-11.405,9.245-20.65,20.65-20.65s20.65,9.245,20.65,20.65
		C133.919,93.038,124.674,102.284,113.269,102.284z"/>
	<path style="fill:#263238;stroke:#263238;stroke-linecap:round;stroke-linejoin:round;stroke-miterlimit:10;" d="M109.825,149.751
		v-9.008l-11.554-1.8c-0.727-3.62-2.109-7-4.011-10.022l6.997-9.579l-6.37-6.37l-9.446,6.9c-2.976-1.979-6.325-3.437-9.919-4.255
		l-1.826-11.72h-9.009l-1.8,11.554c-3.62,0.727-7,2.109-10.022,4.011l-9.579-6.997l-6.37,6.37l6.9,9.447
		c-1.979,2.976-3.437,6.325-4.255,9.919l-11.72,1.826v9.009l11.554,1.8c0.727,3.62,2.109,7,4.011,10.022l-6.997,9.579l6.37,6.37
		l9.447-6.9c2.976,1.979,6.325,3.437,9.919,4.255l1.825,11.72h9.009l1.8-11.554c3.62-0.727,7-2.109,10.022-4.011l9.579,6.997
		l6.37-6.37l-6.9-9.447c1.979-2.976,3.437-6.325,4.255-9.919L109.825,149.751z M68.833,165.539c-11.405,0-20.65-9.245-20.65-20.65
		c0-11.405,9.245-20.65,20.65-20.65c11.405,0,20.65,9.245,20.65,20.65C89.483,156.294,80.238,165.539,68.833,165.539z"/>
</g>
<g id="Software">
	<g>
		<g>
			<path style="fill:#FFFFFF;stroke:#263238;stroke-miterlimit:10;" d="M370.642,267.396H117.013c-3.687,0-6.676-2.989-6.676-6.676
				V91.201c0-3.687,2.989-6.676,6.676-6.676h253.629c3.687,0,6.676,2.989,6.676,6.676V260.72
				C377.318,264.407,374.329,267.396,370.642,267.396z"/>
			<path style="fill:#92E3A9;stroke:#263238;stroke-linecap:round;stroke-linejoin:round;stroke-miterlimit:10;" d="M377.318,99.444
				v-7.445c0-4.127-3.346-7.473-7.473-7.473H117.81c-4.127,0-7.473,3.346-7.473,7.473v7.445H377.318z"/>
			<g>
				<path style="fill:#92E3A9;stroke:#263238;stroke-linecap:round;stroke-linejoin:round;stroke-miterlimit:10;" d="
					M351.229,92.507c0-1.263-1.024-2.287-2.287-2.287c-1.263,0-2.287,1.024-2.287,2.287c0,1.263,1.024,2.287,2.287,2.287
					C350.206,94.794,351.229,93.77,351.229,92.507z"/>
				<path style="fill:#263238;stroke:#263238;stroke-linecap:round;stroke-linejoin:round;stroke-miterlimit:10;" d="
					M360.706,92.507c0-1.263-1.024-2.287-2.287-2.287c-1.263,0-2.287,1.024-2.287,2.287c0,1.263,1.024,2.287,2.287,2.287
					C359.681,94.794,360.706,93.77,360.706,92.507z"/>
				<path style="fill:#FFFFFF;stroke:#263238;stroke-miterlimit:10;" d="M370.182,92.507c0-1.263-1.024-2.287-2.287-2.287
					c-1.263,0-2.287,1.024-2.287,2.287c0,1.263,1.024,2.287,2.287,2.287C369.158,94.794,370.182,93.77,370.182,92.507z"/>
			</g>
		</g>
		<g>
			
				<rect x="124.979" y="113.772" style="fill:#263238;stroke:#263238;stroke-linecap:round;stroke-linejoin:round;stroke-miterlimit:10;" width="132.926" height="139.844"/>
			
				<rect x="124.979" y="113.772" style="fill:#828282;stroke:#263238;stroke-linecap:round;stroke-linejoin:round;stroke-miterlimit:10;" width="132.926" height="7.135"/>
			<g>
				<g>
					<path style="fill:#92E3A9;" d="M137.762,128.22h-3.765c-0.513,0-0.928-0.415-0.928-0.929c0-0.513,0.415-0.928,0.928-0.928
						h3.765c0.513,0,0.929,0.415,0.929,0.928C138.691,127.804,138.275,128.22,137.762,128.22z M138.691,131.594
						c0-0.513-0.415-0.928-0.929-0.928h-3.765c-0.513,0-0.928,0.415-0.928,0.928c0,0.513,0.415,0.929,0.928,0.929h3.765
						C138.275,132.523,138.691,132.107,138.691,131.594z M138.691,135.897c0-0.513-0.415-0.928-0.929-0.928h-3.765
						c-0.513,0-0.928,0.415-0.928,0.928c0,0.513,0.415,0.929,0.928,0.929h3.765C138.275,136.826,138.691,136.411,138.691,135.897z
						 M138.691,140.2c0-0.513-0.415-0.929-0.929-0.929h-3.765c-0.513,0-0.928,0.415-0.928,0.929c0,0.513,0.415,0.929,0.928,0.929
						h3.765C138.275,141.129,138.691,140.714,138.691,140.2z M138.691,144.503c0-0.513-0.415-0.929-0.929-0.929h-3.765
						c-0.513,0-0.928,0.415-0.928,0.929c0,0.513,0.415,0.929,0.928,0.929h3.765C138.275,145.432,138.691,145.017,138.691,144.503z
						 M138.691,148.807c0-0.513-0.415-0.928-0.929-0.928h-3.765c-0.513,0-0.928,0.415-0.928,0.928c0,0.513,0.415,0.929,0.928,0.929
						h3.765C138.275,149.736,138.691,149.321,138.691,148.807z M138.691,153.111c0-0.513-0.415-0.929-0.929-0.929h-3.765
						c-0.513,0-0.928,0.415-0.928,0.929c0,0.513,0.415,0.929,0.928,0.929h3.765C138.275,154.039,138.691,153.624,138.691,153.111z
						 M138.691,157.414c0-0.513-0.415-0.929-0.929-0.929h-3.765c-0.513,0-0.928,0.415-0.928,0.929c0,0.513,0.415,0.928,0.928,0.928
						h3.765C138.275,158.342,138.691,157.927,138.691,157.414z M152.777,127.291c0-0.513-0.415-0.928-0.928-0.928h-9.884
						c-0.513,0-0.928,0.415-0.928,0.928c0,0.513,0.415,0.929,0.928,0.929h9.884C152.361,128.22,152.777,127.804,152.777,127.291z
						 M152.777,131.594c0-0.513-0.415-0.928-0.928-0.928h-9.884c-0.513,0-0.928,0.415-0.928,0.928c0,0.513,0.415,0.929,0.928,0.929
						h9.884C152.361,132.523,152.777,132.107,152.777,131.594z M152.777,135.897c0-0.513-0.415-0.928-0.928-0.928h-9.884
						c-0.513,0-0.928,0.415-0.928,0.928c0,0.513,0.415,0.929,0.928,0.929h9.884C152.361,136.826,152.777,136.411,152.777,135.897z
						 M152.777,140.2c0-0.513-0.415-0.929-0.928-0.929h-9.884c-0.513,0-0.928,0.415-0.928,0.929c0,0.513,0.415,0.929,0.928,0.929
						h9.884C152.361,141.129,152.777,140.714,152.777,140.2z M152.777,144.503c0-0.513-0.415-0.929-0.928-0.929h-9.884
						c-0.513,0-0.928,0.415-0.928,0.929c0,0.513,0.415,0.929,0.928,0.929h9.884C152.361,145.432,152.777,145.017,152.777,144.503z
						 M164.611,148.807c0-0.513-0.415-0.928-0.929-0.928h-9.884c-0.513,0-0.929,0.415-0.929,0.928c0,0.513,0.415,0.929,0.929,0.929
						h9.884C164.195,149.736,164.611,149.321,164.611,148.807z M164.611,153.111c0-0.513-0.415-0.929-0.929-0.929h-9.884
						c-0.513,0-0.929,0.415-0.929,0.929c0,0.513,0.415,0.929,0.929,0.929h9.884C164.195,154.039,164.611,153.624,164.611,153.111z
						 M164.611,157.414c0-0.513-0.415-0.929-0.929-0.929h-9.884c-0.513,0-0.929,0.415-0.929,0.929c0,0.513,0.415,0.928,0.929,0.928
						h9.884C164.195,158.342,164.611,157.927,164.611,157.414z M157.127,127.291c0-0.594-0.482-1.076-1.076-1.076
						c-0.594,0-1.076,0.481-1.076,1.076c0,0.594,0.482,1.076,1.076,1.076C156.645,128.367,157.127,127.885,157.127,127.291z
						 M160.354,127.291c0-0.594-0.481-1.076-1.076-1.076c-0.594,0-1.076,0.481-1.076,1.076c0,0.594,0.482,1.076,1.076,1.076
						C159.872,128.367,160.354,127.885,160.354,127.291z M163.581,127.291c0-0.594-0.482-1.076-1.076-1.076
						c-0.594,0-1.076,0.481-1.076,1.076c0,0.594,0.482,1.076,1.076,1.076C163.1,128.367,163.581,127.885,163.581,127.291z
						 M166.809,127.291c0-0.594-0.482-1.076-1.076-1.076c-0.594,0-1.076,0.481-1.076,1.076c0,0.594,0.482,1.076,1.076,1.076
						C166.327,128.367,166.809,127.885,166.809,127.291z M170.036,127.291c0-0.594-0.482-1.076-1.076-1.076
						c-0.594,0-1.076,0.481-1.076,1.076c0,0.594,0.482,1.076,1.076,1.076C169.555,128.367,170.036,127.885,170.036,127.291z
						 M173.264,127.291c0-0.594-0.482-1.076-1.076-1.076c-0.594,0-1.076,0.481-1.076,1.076c0,0.594,0.482,1.076,1.076,1.076
						C172.782,128.367,173.264,127.885,173.264,127.291z M157.127,135.897c0-0.594-0.482-1.076-1.076-1.076
						c-0.594,0-1.076,0.482-1.076,1.076c0,0.594,0.482,1.076,1.076,1.076C156.645,136.973,157.127,136.492,157.127,135.897z
						 M160.354,135.897c0-0.594-0.481-1.076-1.076-1.076c-0.594,0-1.076,0.482-1.076,1.076c0,0.594,0.482,1.076,1.076,1.076
						C159.872,136.973,160.354,136.492,160.354,135.897z M163.581,135.897c0-0.594-0.482-1.076-1.076-1.076
						c-0.594,0-1.076,0.482-1.076,1.076c0,0.594,0.482,1.076,1.076,1.076C163.1,136.973,163.581,136.492,163.581,135.897z
						 M166.809,135.897c0-0.594-0.482-1.076-1.076-1.076c-0.594,0-1.076,0.482-1.076,1.076c0,0.594,0.482,1.076,1.076,1.076
						C166.327,136.973,166.809,136.492,166.809,135.897z M170.036,135.897c0-0.594-0.482-1.076-1.076-1.076
						c-0.594,0-1.076,0.482-1.076,1.076c0,0.594,0.482,1.076,1.076,1.076C169.555,136.973,170.036,136.492,170.036,135.897z
						 M173.264,135.897c0-0.594-0.482-1.076-1.076-1.076c-0.594,0-1.076,0.482-1.076,1.076c0,0.594,0.482,1.076,1.076,1.076
						C172.782,136.973,173.264,136.492,173.264,135.897z M168.154,148.269c0-0.594-0.482-1.076-1.076-1.076
						c-0.594,0-1.076,0.482-1.076,1.076c0,0.594,0.482,1.076,1.076,1.076C167.672,149.345,168.154,148.863,168.154,148.269z
						 M171.381,148.269c0-0.594-0.482-1.076-1.076-1.076c-0.594,0-1.076,0.482-1.076,1.076c0,0.594,0.482,1.076,1.076,1.076
						C170.899,149.345,171.381,148.863,171.381,148.269z M174.608,148.269c0-0.594-0.482-1.076-1.076-1.076
						c-0.594,0-1.076,0.482-1.076,1.076c0,0.594,0.482,1.076,1.076,1.076C174.127,149.345,174.608,148.863,174.608,148.269z
						 M177.836,148.269c0-0.594-0.482-1.076-1.076-1.076c-0.594,0-1.076,0.482-1.076,1.076c0,0.594,0.482,1.076,1.076,1.076
						C177.354,149.345,177.836,148.863,177.836,148.269z M181.063,148.269c0-0.594-0.481-1.076-1.076-1.076
						c-0.594,0-1.076,0.482-1.076,1.076c0,0.594,0.482,1.076,1.076,1.076C180.582,149.345,181.063,148.863,181.063,148.269z
						 M184.291,148.269c0-0.594-0.482-1.076-1.076-1.076c-0.594,0-1.076,0.482-1.076,1.076c0,0.594,0.482,1.076,1.076,1.076
						C183.809,149.345,184.291,148.863,184.291,148.269z M168.154,157.145c0-0.594-0.482-1.076-1.076-1.076
						c-0.594,0-1.076,0.482-1.076,1.076c0,0.594,0.482,1.076,1.076,1.076C167.672,158.22,168.154,157.739,168.154,157.145z
						 M171.381,157.145c0-0.594-0.482-1.076-1.076-1.076c-0.594,0-1.076,0.482-1.076,1.076c0,0.594,0.482,1.076,1.076,1.076
						C170.899,158.22,171.381,157.739,171.381,157.145z M174.608,157.145c0-0.594-0.482-1.076-1.076-1.076
						c-0.594,0-1.076,0.482-1.076,1.076c0,0.594,0.482,1.076,1.076,1.076C174.127,158.22,174.608,157.739,174.608,157.145z
						 M177.836,157.145c0-0.594-0.482-1.076-1.076-1.076c-0.594,0-1.076,0.482-1.076,1.076c0,0.594,0.482,1.076,1.076,1.076
						C177.354,158.22,177.836,157.739,177.836,157.145z M181.063,157.145c0-0.594-0.481-1.076-1.076-1.076
						c-0.594,0-1.076,0.482-1.076,1.076c0,0.594,0.482,1.076,1.076,1.076C180.582,158.22,181.063,157.739,181.063,157.145z
						 M184.291,157.145c0-0.594-0.482-1.076-1.076-1.076c-0.594,0-1.076,0.482-1.076,1.076c0,0.594,0.482,1.076,1.076,1.076
						C183.809,158.22,184.291,157.739,184.291,157.145z"/>
					<path style="fill:#92E3A9;" d="M137.762,162.654h-3.765c-0.513,0-0.928-0.415-0.928-0.929c0-0.513,0.415-0.929,0.928-0.929
						h3.765c0.513,0,0.929,0.415,0.929,0.929C138.691,162.239,138.275,162.654,137.762,162.654z M138.691,166.029
						c0-0.513-0.415-0.929-0.929-0.929h-3.765c-0.513,0-0.928,0.415-0.928,0.929c0,0.513,0.415,0.929,0.928,0.929h3.765
						C138.275,166.958,138.691,166.542,138.691,166.029z M138.691,170.332c0-0.513-0.415-0.928-0.929-0.928h-3.765
						c-0.513,0-0.928,0.415-0.928,0.928c0,0.513,0.415,0.929,0.928,0.929h3.765C138.275,171.26,138.691,170.845,138.691,170.332z
						 M138.691,174.635c0-0.513-0.415-0.929-0.929-0.929h-3.765c-0.513,0-0.928,0.415-0.928,0.929c0,0.513,0.415,0.929,0.928,0.929
						h3.765C138.275,175.564,138.691,175.148,138.691,174.635z M138.691,178.938c0-0.513-0.415-0.929-0.929-0.929h-3.765
						c-0.513,0-0.928,0.415-0.928,0.929c0,0.513,0.415,0.928,0.928,0.928h3.765C138.275,179.867,138.691,179.451,138.691,178.938z
						 M138.691,183.242c0-0.513-0.415-0.928-0.929-0.928h-3.765c-0.513,0-0.928,0.415-0.928,0.928c0,0.513,0.415,0.929,0.928,0.929
						h3.765C138.275,184.171,138.691,183.755,138.691,183.242z M138.691,187.545c0-0.513-0.415-0.929-0.929-0.929h-3.765
						c-0.513,0-0.928,0.415-0.928,0.929c0,0.513,0.415,0.928,0.928,0.928h3.765C138.275,188.474,138.691,188.058,138.691,187.545z
						 M138.691,191.848c0-0.513-0.415-0.929-0.929-0.929h-3.765c-0.513,0-0.928,0.415-0.928,0.929c0,0.513,0.415,0.928,0.928,0.928
						h3.765C138.275,192.777,138.691,192.361,138.691,191.848z M152.777,161.726c0-0.513-0.415-0.929-0.928-0.929h-9.884
						c-0.513,0-0.928,0.415-0.928,0.929c0,0.513,0.415,0.929,0.928,0.929h9.884C152.361,162.654,152.777,162.239,152.777,161.726z
						 M152.777,166.029c0-0.513-0.415-0.929-0.928-0.929h-9.884c-0.513,0-0.928,0.415-0.928,0.929c0,0.513,0.415,0.929,0.928,0.929
						h9.884C152.361,166.958,152.777,166.542,152.777,166.029z M152.777,170.332c0-0.513-0.415-0.928-0.928-0.928h-9.884
						c-0.513,0-0.928,0.415-0.928,0.928c0,0.513,0.415,0.929,0.928,0.929h9.884C152.361,171.26,152.777,170.845,152.777,170.332z
						 M152.777,174.635c0-0.513-0.415-0.929-0.928-0.929h-9.884c-0.513,0-0.928,0.415-0.928,0.929c0,0.513,0.415,0.929,0.928,0.929
						h9.884C152.361,175.564,152.777,175.148,152.777,174.635z M152.777,178.938c0-0.513-0.415-0.929-0.928-0.929h-9.884
						c-0.513,0-0.928,0.415-0.928,0.929c0,0.513,0.415,0.928,0.928,0.928h9.884C152.361,179.867,152.777,179.451,152.777,178.938z
						 M164.611,183.242c0-0.513-0.415-0.928-0.929-0.928h-9.884c-0.513,0-0.929,0.415-0.929,0.928c0,0.513,0.415,0.929,0.929,0.929
						h9.884C164.195,184.171,164.611,183.755,164.611,183.242z M164.611,187.545c0-0.513-0.415-0.929-0.929-0.929h-9.884
						c-0.513,0-0.929,0.415-0.929,0.929c0,0.513,0.415,0.928,0.929,0.928h9.884C164.195,188.474,164.611,188.058,164.611,187.545z
						 M164.611,191.848c0-0.513-0.415-0.929-0.929-0.929h-9.884c-0.513,0-0.929,0.415-0.929,0.929c0,0.513,0.415,0.928,0.929,0.928
						h9.884C164.195,192.777,164.611,192.361,164.611,191.848z M157.127,161.726c0-0.594-0.482-1.076-1.076-1.076
						c-0.594,0-1.076,0.482-1.076,1.076c0,0.594,0.482,1.076,1.076,1.076C156.645,162.801,157.127,162.32,157.127,161.726z
						 M160.354,161.726c0-0.594-0.481-1.076-1.076-1.076c-0.594,0-1.076,0.482-1.076,1.076c0,0.594,0.482,1.076,1.076,1.076
						C159.872,162.801,160.354,162.32,160.354,161.726z M163.581,161.726c0-0.594-0.482-1.076-1.076-1.076
						c-0.594,0-1.076,0.482-1.076,1.076c0,0.594,0.482,1.076,1.076,1.076C163.1,162.801,163.581,162.32,163.581,161.726z
						 M166.809,161.726c0-0.594-0.482-1.076-1.076-1.076c-0.594,0-1.076,0.482-1.076,1.076c0,0.594,0.482,1.076,1.076,1.076
						C166.327,162.801,166.809,162.32,166.809,161.726z M170.036,161.726c0-0.594-0.482-1.076-1.076-1.076
						c-0.594,0-1.076,0.482-1.076,1.076c0,0.594,0.482,1.076,1.076,1.076C169.555,162.801,170.036,162.32,170.036,161.726z
						 M173.264,161.726c0-0.594-0.482-1.076-1.076-1.076c-0.594,0-1.076,0.482-1.076,1.076c0,0.594,0.482,1.076,1.076,1.076
						C172.782,162.801,173.264,162.32,173.264,161.726z M157.127,170.332c0-0.594-0.482-1.076-1.076-1.076
						c-0.594,0-1.076,0.481-1.076,1.076c0,0.594,0.482,1.076,1.076,1.076C156.645,171.408,157.127,170.926,157.127,170.332z
						 M160.354,170.332c0-0.594-0.481-1.076-1.076-1.076c-0.594,0-1.076,0.481-1.076,1.076c0,0.594,0.482,1.076,1.076,1.076
						C159.872,171.408,160.354,170.926,160.354,170.332z M163.581,170.332c0-0.594-0.482-1.076-1.076-1.076
						c-0.594,0-1.076,0.481-1.076,1.076c0,0.594,0.482,1.076,1.076,1.076C163.1,171.408,163.581,170.926,163.581,170.332z
						 M166.809,170.332c0-0.594-0.482-1.076-1.076-1.076c-0.594,0-1.076,0.481-1.076,1.076c0,0.594,0.482,1.076,1.076,1.076
						C166.327,171.408,166.809,170.926,166.809,170.332z M170.036,170.332c0-0.594-0.482-1.076-1.076-1.076
						c-0.594,0-1.076,0.481-1.076,1.076c0,0.594,0.482,1.076,1.076,1.076C169.555,171.408,170.036,170.926,170.036,170.332z
						 M173.264,170.332c0-0.594-0.482-1.076-1.076-1.076c-0.594,0-1.076,0.481-1.076,1.076c0,0.594,0.482,1.076,1.076,1.076
						C172.782,171.408,173.264,170.926,173.264,170.332z M168.154,182.704c0-0.594-0.482-1.076-1.076-1.076
						c-0.594,0-1.076,0.482-1.076,1.076c0,0.594,0.482,1.076,1.076,1.076C167.672,183.779,168.154,183.298,168.154,182.704z
						 M171.381,182.704c0-0.594-0.482-1.076-1.076-1.076c-0.594,0-1.076,0.482-1.076,1.076c0,0.594,0.482,1.076,1.076,1.076
						C170.899,183.779,171.381,183.298,171.381,182.704z M174.608,182.704c0-0.594-0.482-1.076-1.076-1.076
						c-0.594,0-1.076,0.482-1.076,1.076c0,0.594,0.482,1.076,1.076,1.076C174.127,183.779,174.608,183.298,174.608,182.704z
						 M177.836,182.704c0-0.594-0.482-1.076-1.076-1.076c-0.594,0-1.076,0.482-1.076,1.076c0,0.594,0.482,1.076,1.076,1.076
						C177.354,183.779,177.836,183.298,177.836,182.704z M181.063,182.704c0-0.594-0.481-1.076-1.076-1.076
						c-0.594,0-1.076,0.482-1.076,1.076c0,0.594,0.482,1.076,1.076,1.076C180.582,183.779,181.063,183.298,181.063,182.704z
						 M184.291,182.704c0-0.594-0.482-1.076-1.076-1.076c-0.594,0-1.076,0.482-1.076,1.076c0,0.594,0.482,1.076,1.076,1.076
						C183.809,183.779,184.291,183.298,184.291,182.704z M168.154,191.579c0-0.594-0.482-1.076-1.076-1.076
						c-0.594,0-1.076,0.482-1.076,1.076c0,0.594,0.482,1.076,1.076,1.076C167.672,192.655,168.154,192.173,168.154,191.579z
						 M171.381,191.579c0-0.594-0.482-1.076-1.076-1.076c-0.594,0-1.076,0.482-1.076,1.076c0,0.594,0.482,1.076,1.076,1.076
						C170.899,192.655,171.381,192.173,171.381,191.579z M174.608,191.579c0-0.594-0.482-1.076-1.076-1.076
						c-0.594,0-1.076,0.482-1.076,1.076c0,0.594,0.482,1.076,1.076,1.076C174.127,192.655,174.608,192.173,174.608,191.579z
						 M177.836,191.579c0-0.594-0.482-1.076-1.076-1.076c-0.594,0-1.076,0.482-1.076,1.076c0,0.594,0.482,1.076,1.076,1.076
						C177.354,192.655,177.836,192.173,177.836,191.579z M181.063,191.579c0-0.594-0.481-1.076-1.076-1.076
						c-0.594,0-1.076,0.482-1.076,1.076c0,0.594,0.482,1.076,1.076,1.076C180.582,192.655,181.063,192.173,181.063,191.579z
						 M184.291,191.579c0-0.594-0.482-1.076-1.076-1.076c-0.594,0-1.076,0.482-1.076,1.076c0,0.594,0.482,1.076,1.076,1.076
						C183.809,192.655,184.291,192.173,184.291,191.579z"/>
					<path style="fill:#92E3A9;" d="M137.762,197.92h-3.765c-0.513,0-0.928-0.415-0.928-0.929c0-0.513,0.415-0.929,0.928-0.929
						h3.765c0.513,0,0.929,0.415,0.929,0.929C138.691,197.505,138.275,197.92,137.762,197.92z M138.691,201.295
						c0-0.513-0.415-0.928-0.929-0.928h-3.765c-0.513,0-0.928,0.415-0.928,0.928c0,0.513,0.415,0.929,0.928,0.929h3.765
						C138.275,202.223,138.691,201.808,138.691,201.295z M138.691,205.598c0-0.513-0.415-0.929-0.929-0.929h-3.765
						c-0.513,0-0.928,0.415-0.928,0.929c0,0.513,0.415,0.928,0.928,0.928h3.765C138.275,206.526,138.691,206.111,138.691,205.598z
						 M138.691,209.901c0-0.513-0.415-0.929-0.929-0.929h-3.765c-0.513,0-0.928,0.415-0.928,0.929c0,0.513,0.415,0.928,0.928,0.928
						h3.765C138.275,210.829,138.691,210.414,138.691,209.901z M138.691,214.204c0-0.513-0.415-0.929-0.929-0.929h-3.765
						c-0.513,0-0.928,0.415-0.928,0.929c0,0.513,0.415,0.929,0.928,0.929h3.765C138.275,215.133,138.691,214.717,138.691,214.204z
						 M138.691,218.508c0-0.513-0.415-0.929-0.929-0.929h-3.765c-0.513,0-0.928,0.415-0.928,0.929c0,0.513,0.415,0.929,0.928,0.929
						h3.765C138.275,219.437,138.691,219.021,138.691,218.508z M138.691,222.811c0-0.513-0.415-0.929-0.929-0.929h-3.765
						c-0.513,0-0.928,0.415-0.928,0.929c0,0.513,0.415,0.928,0.928,0.928h3.765C138.275,223.74,138.691,223.324,138.691,222.811z
						 M138.691,227.114c0-0.513-0.415-0.929-0.929-0.929h-3.765c-0.513,0-0.928,0.416-0.928,0.929c0,0.513,0.415,0.929,0.928,0.929
						h3.765C138.275,228.043,138.691,227.627,138.691,227.114z M152.777,196.992c0-0.513-0.415-0.929-0.928-0.929h-9.884
						c-0.513,0-0.928,0.415-0.928,0.929c0,0.513,0.415,0.929,0.928,0.929h9.884C152.361,197.92,152.777,197.505,152.777,196.992z
						 M152.777,201.295c0-0.513-0.415-0.928-0.928-0.928h-9.884c-0.513,0-0.928,0.415-0.928,0.928c0,0.513,0.415,0.929,0.928,0.929
						h9.884C152.361,202.223,152.777,201.808,152.777,201.295z M152.777,205.598c0-0.513-0.415-0.929-0.928-0.929h-9.884
						c-0.513,0-0.928,0.415-0.928,0.929c0,0.513,0.415,0.928,0.928,0.928h9.884C152.361,206.526,152.777,206.111,152.777,205.598z
						 M152.777,209.901c0-0.513-0.415-0.929-0.928-0.929h-9.884c-0.513,0-0.928,0.415-0.928,0.929c0,0.513,0.415,0.928,0.928,0.928
						h9.884C152.361,210.829,152.777,210.414,152.777,209.901z M152.777,214.204c0-0.513-0.415-0.929-0.928-0.929h-9.884
						c-0.513,0-0.928,0.415-0.928,0.929c0,0.513,0.415,0.929,0.928,0.929h9.884C152.361,215.133,152.777,214.717,152.777,214.204z
						 M164.611,218.508c0-0.513-0.415-0.929-0.929-0.929h-9.884c-0.513,0-0.929,0.415-0.929,0.929c0,0.513,0.415,0.929,0.929,0.929
						h9.884C164.195,219.437,164.611,219.021,164.611,218.508z M164.611,222.811c0-0.513-0.415-0.929-0.929-0.929h-9.884
						c-0.513,0-0.929,0.415-0.929,0.929c0,0.513,0.415,0.928,0.929,0.928h9.884C164.195,223.74,164.611,223.324,164.611,222.811z
						 M164.611,227.114c0-0.513-0.415-0.929-0.929-0.929h-9.884c-0.513,0-0.929,0.416-0.929,0.929c0,0.513,0.415,0.929,0.929,0.929
						h9.884C164.195,228.043,164.611,227.627,164.611,227.114z M157.127,196.992c0-0.594-0.482-1.076-1.076-1.076
						c-0.594,0-1.076,0.482-1.076,1.076c0,0.594,0.482,1.076,1.076,1.076C156.645,198.067,157.127,197.586,157.127,196.992z
						 M160.354,196.992c0-0.594-0.481-1.076-1.076-1.076c-0.594,0-1.076,0.482-1.076,1.076c0,0.594,0.482,1.076,1.076,1.076
						C159.872,198.067,160.354,197.586,160.354,196.992z M163.581,196.992c0-0.594-0.482-1.076-1.076-1.076
						c-0.594,0-1.076,0.482-1.076,1.076c0,0.594,0.482,1.076,1.076,1.076C163.1,198.067,163.581,197.586,163.581,196.992z
						 M166.809,196.992c0-0.594-0.482-1.076-1.076-1.076c-0.594,0-1.076,0.482-1.076,1.076c0,0.594,0.482,1.076,1.076,1.076
						C166.327,198.067,166.809,197.586,166.809,196.992z M170.036,196.992c0-0.594-0.482-1.076-1.076-1.076
						c-0.594,0-1.076,0.482-1.076,1.076c0,0.594,0.482,1.076,1.076,1.076C169.555,198.067,170.036,197.586,170.036,196.992z
						 M173.264,196.992c0-0.594-0.482-1.076-1.076-1.076c-0.594,0-1.076,0.482-1.076,1.076c0,0.594,0.482,1.076,1.076,1.076
						C172.782,198.067,173.264,197.586,173.264,196.992z M157.127,205.598c0-0.594-0.482-1.076-1.076-1.076
						c-0.594,0-1.076,0.482-1.076,1.076c0,0.594,0.482,1.076,1.076,1.076C156.645,206.674,157.127,206.192,157.127,205.598z
						 M160.354,205.598c0-0.594-0.481-1.076-1.076-1.076c-0.594,0-1.076,0.482-1.076,1.076c0,0.594,0.482,1.076,1.076,1.076
						C159.872,206.674,160.354,206.192,160.354,205.598z M163.581,205.598c0-0.594-0.482-1.076-1.076-1.076
						c-0.594,0-1.076,0.482-1.076,1.076c0,0.594,0.482,1.076,1.076,1.076C163.1,206.674,163.581,206.192,163.581,205.598z
						 M166.809,205.598c0-0.594-0.482-1.076-1.076-1.076c-0.594,0-1.076,0.482-1.076,1.076c0,0.594,0.482,1.076,1.076,1.076
						C166.327,206.674,166.809,206.192,166.809,205.598z M170.036,205.598c0-0.594-0.482-1.076-1.076-1.076
						c-0.594,0-1.076,0.482-1.076,1.076c0,0.594,0.482,1.076,1.076,1.076C169.555,206.674,170.036,206.192,170.036,205.598z
						 M173.264,205.598c0-0.594-0.482-1.076-1.076-1.076c-0.594,0-1.076,0.482-1.076,1.076c0,0.594,0.482,1.076,1.076,1.076
						C172.782,206.674,173.264,206.192,173.264,205.598z M168.154,217.97c0-0.594-0.482-1.076-1.076-1.076
						c-0.594,0-1.076,0.482-1.076,1.076c0,0.594,0.482,1.076,1.076,1.076C167.672,219.046,168.154,218.564,168.154,217.97z
						 M171.381,217.97c0-0.594-0.482-1.076-1.076-1.076c-0.594,0-1.076,0.482-1.076,1.076c0,0.594,0.482,1.076,1.076,1.076
						C170.899,219.046,171.381,218.564,171.381,217.97z M174.608,217.97c0-0.594-0.482-1.076-1.076-1.076
						c-0.594,0-1.076,0.482-1.076,1.076c0,0.594,0.482,1.076,1.076,1.076C174.127,219.046,174.608,218.564,174.608,217.97z
						 M177.836,217.97c0-0.594-0.482-1.076-1.076-1.076c-0.594,0-1.076,0.482-1.076,1.076c0,0.594,0.482,1.076,1.076,1.076
						C177.354,219.046,177.836,218.564,177.836,217.97z M181.063,217.97c0-0.594-0.481-1.076-1.076-1.076
						c-0.594,0-1.076,0.482-1.076,1.076c0,0.594,0.482,1.076,1.076,1.076C180.582,219.046,181.063,218.564,181.063,217.97z
						 M184.291,217.97c0-0.594-0.482-1.076-1.076-1.076c-0.594,0-1.076,0.482-1.076,1.076c0,0.594,0.482,1.076,1.076,1.076
						C183.809,219.046,184.291,218.564,184.291,217.97z M168.154,226.845c0-0.594-0.482-1.076-1.076-1.076
						c-0.594,0-1.076,0.482-1.076,1.076c0,0.594,0.482,1.076,1.076,1.076C167.672,227.921,168.154,227.439,168.154,226.845z
						 M171.381,226.845c0-0.594-0.482-1.076-1.076-1.076c-0.594,0-1.076,0.482-1.076,1.076c0,0.594,0.482,1.076,1.076,1.076
						C170.899,227.921,171.381,227.439,171.381,226.845z M174.608,226.845c0-0.594-0.482-1.076-1.076-1.076
						c-0.594,0-1.076,0.482-1.076,1.076c0,0.594,0.482,1.076,1.076,1.076C174.127,227.921,174.608,227.439,174.608,226.845z
						 M177.836,226.845c0-0.594-0.482-1.076-1.076-1.076c-0.594,0-1.076,0.482-1.076,1.076c0,0.594,0.482,1.076,1.076,1.076
						C177.354,227.921,177.836,227.439,177.836,226.845z M181.063,226.845c0-0.594-0.481-1.076-1.076-1.076
						c-0.594,0-1.076,0.482-1.076,1.076c0,0.594,0.482,1.076,1.076,1.076C180.582,227.921,181.063,227.439,181.063,226.845z
						 M184.291,226.845c0-0.594-0.482-1.076-1.076-1.076c-0.594,0-1.076,0.482-1.076,1.076c0,0.594,0.482,1.076,1.076,1.076
						C183.809,227.921,184.291,227.439,184.291,226.845z"/>
					<path style="fill:#92E3A9;" d="M195.571,128.22h-3.765c-0.513,0-0.928-0.415-0.928-0.929c0-0.513,0.415-0.928,0.928-0.928
						h3.765c0.513,0,0.929,0.415,0.929,0.928C196.499,127.804,196.084,128.22,195.571,128.22z M196.499,131.594
						c0-0.513-0.415-0.928-0.929-0.928h-3.765c-0.513,0-0.928,0.415-0.928,0.928c0,0.513,0.415,0.929,0.928,0.929h3.765
						C196.084,132.523,196.499,132.107,196.499,131.594z M196.499,135.897c0-0.513-0.415-0.928-0.929-0.928h-3.765
						c-0.513,0-0.928,0.415-0.928,0.928c0,0.513,0.415,0.929,0.928,0.929h3.765C196.084,136.826,196.499,136.411,196.499,135.897z
						 M196.499,140.2c0-0.513-0.415-0.929-0.929-0.929h-3.765c-0.513,0-0.928,0.415-0.928,0.929c0,0.513,0.415,0.929,0.928,0.929
						h3.765C196.084,141.129,196.499,140.714,196.499,140.2z M196.499,144.503c0-0.513-0.415-0.929-0.929-0.929h-3.765
						c-0.513,0-0.928,0.415-0.928,0.929c0,0.513,0.415,0.929,0.928,0.929h3.765C196.084,145.432,196.499,145.017,196.499,144.503z
						 M196.499,148.807c0-0.513-0.415-0.928-0.929-0.928h-3.765c-0.513,0-0.928,0.415-0.928,0.928c0,0.513,0.415,0.929,0.928,0.929
						h3.765C196.084,149.736,196.499,149.321,196.499,148.807z M196.499,153.111c0-0.513-0.415-0.929-0.929-0.929h-3.765
						c-0.513,0-0.928,0.415-0.928,0.929c0,0.513,0.415,0.929,0.928,0.929h3.765C196.084,154.039,196.499,153.624,196.499,153.111z
						 M196.499,157.414c0-0.513-0.415-0.929-0.929-0.929h-3.765c-0.513,0-0.928,0.415-0.928,0.929c0,0.513,0.415,0.928,0.928,0.928
						h3.765C196.084,158.342,196.499,157.927,196.499,157.414z M210.586,127.291c0-0.513-0.415-0.928-0.929-0.928h-9.884
						c-0.513,0-0.929,0.415-0.929,0.928c0,0.513,0.415,0.929,0.929,0.929h9.884C210.171,128.22,210.586,127.804,210.586,127.291z
						 M210.586,131.594c0-0.513-0.415-0.928-0.929-0.928h-9.884c-0.513,0-0.929,0.415-0.929,0.928c0,0.513,0.415,0.929,0.929,0.929
						h9.884C210.171,132.523,210.586,132.107,210.586,131.594z M210.586,135.897c0-0.513-0.415-0.928-0.929-0.928h-9.884
						c-0.513,0-0.929,0.415-0.929,0.928c0,0.513,0.415,0.929,0.929,0.929h9.884C210.171,136.826,210.586,136.411,210.586,135.897z
						 M210.586,140.2c0-0.513-0.415-0.929-0.929-0.929h-9.884c-0.513,0-0.929,0.415-0.929,0.929c0,0.513,0.415,0.929,0.929,0.929
						h9.884C210.171,141.129,210.586,140.714,210.586,140.2z M210.586,144.503c0-0.513-0.415-0.929-0.929-0.929h-9.884
						c-0.513,0-0.929,0.415-0.929,0.929c0,0.513,0.415,0.929,0.929,0.929h9.884C210.171,145.432,210.586,145.017,210.586,144.503z
						 M222.419,148.807c0-0.513-0.415-0.928-0.929-0.928h-9.884c-0.513,0-0.929,0.415-0.929,0.928c0,0.513,0.415,0.929,0.929,0.929
						h9.884C222.004,149.736,222.419,149.321,222.419,148.807z M222.419,153.111c0-0.513-0.415-0.929-0.929-0.929h-9.884
						c-0.513,0-0.929,0.415-0.929,0.929c0,0.513,0.415,0.929,0.929,0.929h9.884C222.004,154.039,222.419,153.624,222.419,153.111z
						 M222.419,157.414c0-0.513-0.415-0.929-0.929-0.929h-9.884c-0.513,0-0.929,0.415-0.929,0.929c0,0.513,0.415,0.928,0.929,0.928
						h9.884C222.004,158.342,222.419,157.927,222.419,157.414z M214.936,127.291c0-0.594-0.482-1.076-1.076-1.076
						c-0.594,0-1.076,0.481-1.076,1.076c0,0.594,0.482,1.076,1.076,1.076C214.454,128.367,214.936,127.885,214.936,127.291z
						 M218.163,127.291c0-0.594-0.482-1.076-1.076-1.076c-0.594,0-1.076,0.481-1.076,1.076c0,0.594,0.482,1.076,1.076,1.076
						C217.681,128.367,218.163,127.885,218.163,127.291z M221.39,127.291c0-0.594-0.482-1.076-1.076-1.076
						c-0.594,0-1.076,0.481-1.076,1.076c0,0.594,0.482,1.076,1.076,1.076C220.909,128.367,221.39,127.885,221.39,127.291z
						 M224.618,127.291c0-0.594-0.482-1.076-1.076-1.076c-0.594,0-1.076,0.481-1.076,1.076c0,0.594,0.482,1.076,1.076,1.076
						C224.136,128.367,224.618,127.885,224.618,127.291z M227.845,127.291c0-0.594-0.482-1.076-1.076-1.076
						c-0.594,0-1.076,0.481-1.076,1.076c0,0.594,0.482,1.076,1.076,1.076C227.364,128.367,227.845,127.885,227.845,127.291z
						 M231.073,127.291c0-0.594-0.482-1.076-1.076-1.076c-0.594,0-1.076,0.481-1.076,1.076c0,0.594,0.482,1.076,1.076,1.076
						C230.591,128.367,231.073,127.885,231.073,127.291z M214.936,135.897c0-0.594-0.482-1.076-1.076-1.076
						c-0.594,0-1.076,0.482-1.076,1.076c0,0.594,0.482,1.076,1.076,1.076C214.454,136.973,214.936,136.492,214.936,135.897z
						 M218.163,135.897c0-0.594-0.482-1.076-1.076-1.076c-0.594,0-1.076,0.482-1.076,1.076c0,0.594,0.482,1.076,1.076,1.076
						C217.681,136.973,218.163,136.492,218.163,135.897z M221.39,135.897c0-0.594-0.482-1.076-1.076-1.076
						c-0.594,0-1.076,0.482-1.076,1.076c0,0.594,0.482,1.076,1.076,1.076C220.909,136.973,221.39,136.492,221.39,135.897z
						 M224.618,135.897c0-0.594-0.482-1.076-1.076-1.076c-0.594,0-1.076,0.482-1.076,1.076c0,0.594,0.482,1.076,1.076,1.076
						C224.136,136.973,224.618,136.492,224.618,135.897z M227.845,135.897c0-0.594-0.482-1.076-1.076-1.076
						c-0.594,0-1.076,0.482-1.076,1.076c0,0.594,0.482,1.076,1.076,1.076C227.364,136.973,227.845,136.492,227.845,135.897z
						 M231.073,135.897c0-0.594-0.482-1.076-1.076-1.076c-0.594,0-1.076,0.482-1.076,1.076c0,0.594,0.482,1.076,1.076,1.076
						C230.591,136.973,231.073,136.492,231.073,135.897z M225.963,148.269c0-0.594-0.482-1.076-1.076-1.076
						c-0.594,0-1.076,0.482-1.076,1.076c0,0.594,0.482,1.076,1.076,1.076C225.481,149.345,225.963,148.863,225.963,148.269z
						 M229.19,148.269c0-0.594-0.482-1.076-1.076-1.076c-0.594,0-1.076,0.482-1.076,1.076c0,0.594,0.481,1.076,1.076,1.076
						C228.708,149.345,229.19,148.863,229.19,148.269z M232.417,148.269c0-0.594-0.482-1.076-1.076-1.076
						c-0.594,0-1.076,0.482-1.076,1.076c0,0.594,0.482,1.076,1.076,1.076C231.936,149.345,232.417,148.863,232.417,148.269z
						 M235.645,148.269c0-0.594-0.482-1.076-1.076-1.076c-0.594,0-1.076,0.482-1.076,1.076c0,0.594,0.482,1.076,1.076,1.076
						C235.163,149.345,235.645,148.863,235.645,148.269z M238.872,148.269c0-0.594-0.482-1.076-1.076-1.076
						c-0.594,0-1.076,0.482-1.076,1.076c0,0.594,0.482,1.076,1.076,1.076C238.39,149.345,238.872,148.863,238.872,148.269z
						 M242.099,148.269c0-0.594-0.482-1.076-1.076-1.076c-0.594,0-1.076,0.482-1.076,1.076c0,0.594,0.481,1.076,1.076,1.076
						C241.618,149.345,242.099,148.863,242.099,148.269z M225.963,157.145c0-0.594-0.482-1.076-1.076-1.076
						c-0.594,0-1.076,0.482-1.076,1.076c0,0.594,0.482,1.076,1.076,1.076C225.481,158.22,225.963,157.739,225.963,157.145z
						 M229.19,157.145c0-0.594-0.482-1.076-1.076-1.076c-0.594,0-1.076,0.482-1.076,1.076c0,0.594,0.481,1.076,1.076,1.076
						C228.708,158.22,229.19,157.739,229.19,157.145z M232.417,157.145c0-0.594-0.482-1.076-1.076-1.076
						c-0.594,0-1.076,0.482-1.076,1.076c0,0.594,0.482,1.076,1.076,1.076C231.936,158.22,232.417,157.739,232.417,157.145z
						 M235.645,157.145c0-0.594-0.482-1.076-1.076-1.076c-0.594,0-1.076,0.482-1.076,1.076c0,0.594,0.482,1.076,1.076,1.076
						C235.163,158.22,235.645,157.739,235.645,157.145z M238.872,157.145c0-0.594-0.482-1.076-1.076-1.076
						c-0.594,0-1.076,0.482-1.076,1.076c0,0.594,0.482,1.076,1.076,1.076C238.39,158.22,238.872,157.739,238.872,157.145z
						 M242.099,157.145c0-0.594-0.482-1.076-1.076-1.076c-0.594,0-1.076,0.482-1.076,1.076c0,0.594,0.481,1.076,1.076,1.076
						C241.618,158.22,242.099,157.739,242.099,157.145z"/>
					<path style="fill:#92E3A9;" d="M195.571,163.486h-3.765c-0.513,0-0.928-0.415-0.928-0.929c0-0.513,0.415-0.929,0.928-0.929
						h3.765c0.513,0,0.929,0.415,0.929,0.929C196.499,163.07,196.084,163.486,195.571,163.486z M196.499,166.86
						c0-0.513-0.415-0.929-0.929-0.929h-3.765c-0.513,0-0.928,0.415-0.928,0.929c0,0.513,0.415,0.929,0.928,0.929h3.765
						C196.084,167.789,196.499,167.374,196.499,166.86z M196.499,171.163c0-0.513-0.415-0.929-0.929-0.929h-3.765
						c-0.513,0-0.928,0.415-0.928,0.929c0,0.513,0.415,0.929,0.928,0.929h3.765C196.084,172.092,196.499,171.677,196.499,171.163z
						 M196.499,175.466c0-0.513-0.415-0.929-0.929-0.929h-3.765c-0.513,0-0.928,0.415-0.928,0.929c0,0.513,0.415,0.928,0.928,0.928
						h3.765C196.084,176.395,196.499,175.98,196.499,175.466z M196.499,179.769c0-0.513-0.415-0.929-0.929-0.929h-3.765
						c-0.513,0-0.928,0.415-0.928,0.929c0,0.513,0.415,0.929,0.928,0.929h3.765C196.084,180.698,196.499,180.283,196.499,179.769z
						 M196.499,184.073c0-0.513-0.415-0.929-0.929-0.929h-3.765c-0.513,0-0.928,0.415-0.928,0.929c0,0.513,0.415,0.929,0.928,0.929
						h3.765C196.084,185.002,196.499,184.587,196.499,184.073z M196.499,188.376c0-0.513-0.415-0.929-0.929-0.929h-3.765
						c-0.513,0-0.928,0.415-0.928,0.929c0,0.513,0.415,0.928,0.928,0.928h3.765C196.084,189.305,196.499,188.89,196.499,188.376z
						 M196.499,192.68c0-0.513-0.415-0.929-0.929-0.929h-3.765c-0.513,0-0.928,0.416-0.928,0.929c0,0.513,0.415,0.929,0.928,0.929
						h3.765C196.084,193.608,196.499,193.193,196.499,192.68z M210.586,162.557c0-0.513-0.415-0.929-0.929-0.929h-9.884
						c-0.513,0-0.929,0.415-0.929,0.929c0,0.513,0.415,0.929,0.929,0.929h9.884C210.171,163.486,210.586,163.07,210.586,162.557z
						 M210.586,166.86c0-0.513-0.415-0.929-0.929-0.929h-9.884c-0.513,0-0.929,0.415-0.929,0.929c0,0.513,0.415,0.929,0.929,0.929
						h9.884C210.171,167.789,210.586,167.374,210.586,166.86z M210.586,171.163c0-0.513-0.415-0.929-0.929-0.929h-9.884
						c-0.513,0-0.929,0.415-0.929,0.929c0,0.513,0.415,0.929,0.929,0.929h9.884C210.171,172.092,210.586,171.677,210.586,171.163z
						 M210.586,175.466c0-0.513-0.415-0.929-0.929-0.929h-9.884c-0.513,0-0.929,0.415-0.929,0.929c0,0.513,0.415,0.928,0.929,0.928
						h9.884C210.171,176.395,210.586,175.98,210.586,175.466z M210.586,179.769c0-0.513-0.415-0.929-0.929-0.929h-9.884
						c-0.513,0-0.929,0.415-0.929,0.929c0,0.513,0.415,0.929,0.929,0.929h9.884C210.171,180.698,210.586,180.283,210.586,179.769z
						 M222.419,184.073c0-0.513-0.415-0.929-0.929-0.929h-9.884c-0.513,0-0.929,0.415-0.929,0.929c0,0.513,0.415,0.929,0.929,0.929
						h9.884C222.004,185.002,222.419,184.587,222.419,184.073z M222.419,188.376c0-0.513-0.415-0.929-0.929-0.929h-9.884
						c-0.513,0-0.929,0.415-0.929,0.929c0,0.513,0.415,0.928,0.929,0.928h9.884C222.004,189.305,222.419,188.89,222.419,188.376z
						 M222.419,192.68c0-0.513-0.415-0.929-0.929-0.929h-9.884c-0.513,0-0.929,0.416-0.929,0.929c0,0.513,0.415,0.929,0.929,0.929
						h9.884C222.004,193.608,222.419,193.193,222.419,192.68z M214.936,162.557c0-0.594-0.482-1.076-1.076-1.076
						c-0.594,0-1.076,0.482-1.076,1.076c0,0.594,0.482,1.076,1.076,1.076C214.454,163.633,214.936,163.151,214.936,162.557z
						 M218.163,162.557c0-0.594-0.482-1.076-1.076-1.076c-0.594,0-1.076,0.482-1.076,1.076c0,0.594,0.482,1.076,1.076,1.076
						C217.681,163.633,218.163,163.151,218.163,162.557z M221.39,162.557c0-0.594-0.482-1.076-1.076-1.076
						c-0.594,0-1.076,0.482-1.076,1.076c0,0.594,0.482,1.076,1.076,1.076C220.909,163.633,221.39,163.151,221.39,162.557z
						 M224.618,162.557c0-0.594-0.482-1.076-1.076-1.076c-0.594,0-1.076,0.482-1.076,1.076c0,0.594,0.482,1.076,1.076,1.076
						C224.136,163.633,224.618,163.151,224.618,162.557z M227.845,162.557c0-0.594-0.482-1.076-1.076-1.076
						c-0.594,0-1.076,0.482-1.076,1.076c0,0.594,0.482,1.076,1.076,1.076C227.364,163.633,227.845,163.151,227.845,162.557z
						 M231.073,162.557c0-0.594-0.482-1.076-1.076-1.076c-0.594,0-1.076,0.482-1.076,1.076c0,0.594,0.482,1.076,1.076,1.076
						C230.591,163.633,231.073,163.151,231.073,162.557z M214.936,171.163c0-0.594-0.482-1.076-1.076-1.076
						c-0.594,0-1.076,0.482-1.076,1.076c0,0.594,0.482,1.076,1.076,1.076C214.454,172.239,214.936,171.758,214.936,171.163z
						 M218.163,171.163c0-0.594-0.482-1.076-1.076-1.076c-0.594,0-1.076,0.482-1.076,1.076c0,0.594,0.482,1.076,1.076,1.076
						C217.681,172.239,218.163,171.758,218.163,171.163z M221.39,171.163c0-0.594-0.482-1.076-1.076-1.076
						c-0.594,0-1.076,0.482-1.076,1.076c0,0.594,0.482,1.076,1.076,1.076C220.909,172.239,221.39,171.758,221.39,171.163z
						 M224.618,171.163c0-0.594-0.482-1.076-1.076-1.076c-0.594,0-1.076,0.482-1.076,1.076c0,0.594,0.482,1.076,1.076,1.076
						C224.136,172.239,224.618,171.758,224.618,171.163z M227.845,171.163c0-0.594-0.482-1.076-1.076-1.076
						c-0.594,0-1.076,0.482-1.076,1.076c0,0.594,0.482,1.076,1.076,1.076C227.364,172.239,227.845,171.758,227.845,171.163z
						 M231.073,171.163c0-0.594-0.482-1.076-1.076-1.076c-0.594,0-1.076,0.482-1.076,1.076c0,0.594,0.482,1.076,1.076,1.076
						C230.591,172.239,231.073,171.758,231.073,171.163z M225.963,183.535c0-0.594-0.482-1.076-1.076-1.076
						c-0.594,0-1.076,0.482-1.076,1.076c0,0.594,0.482,1.076,1.076,1.076C225.481,184.611,225.963,184.129,225.963,183.535z
						 M229.19,183.535c0-0.594-0.482-1.076-1.076-1.076c-0.594,0-1.076,0.482-1.076,1.076c0,0.594,0.481,1.076,1.076,1.076
						C228.708,184.611,229.19,184.129,229.19,183.535z M232.417,183.535c0-0.594-0.482-1.076-1.076-1.076
						c-0.594,0-1.076,0.482-1.076,1.076c0,0.594,0.482,1.076,1.076,1.076C231.936,184.611,232.417,184.129,232.417,183.535z
						 M235.645,183.535c0-0.594-0.482-1.076-1.076-1.076c-0.594,0-1.076,0.482-1.076,1.076c0,0.594,0.482,1.076,1.076,1.076
						C235.163,184.611,235.645,184.129,235.645,183.535z M238.872,183.535c0-0.594-0.482-1.076-1.076-1.076
						c-0.594,0-1.076,0.482-1.076,1.076c0,0.594,0.482,1.076,1.076,1.076C238.39,184.611,238.872,184.129,238.872,183.535z
						 M242.099,183.535c0-0.594-0.482-1.076-1.076-1.076c-0.594,0-1.076,0.482-1.076,1.076c0,0.594,0.481,1.076,1.076,1.076
						C241.618,184.611,242.099,184.129,242.099,183.535z M225.963,192.411c0-0.594-0.482-1.076-1.076-1.076
						c-0.594,0-1.076,0.482-1.076,1.076c0,0.594,0.482,1.076,1.076,1.076C225.481,193.486,225.963,193.005,225.963,192.411z
						 M229.19,192.411c0-0.594-0.482-1.076-1.076-1.076c-0.594,0-1.076,0.482-1.076,1.076c0,0.594,0.481,1.076,1.076,1.076
						C228.708,193.486,229.19,193.005,229.19,192.411z M232.417,192.411c0-0.594-0.482-1.076-1.076-1.076
						c-0.594,0-1.076,0.482-1.076,1.076c0,0.594,0.482,1.076,1.076,1.076C231.936,193.486,232.417,193.005,232.417,192.411z
						 M235.645,192.411c0-0.594-0.482-1.076-1.076-1.076c-0.594,0-1.076,0.482-1.076,1.076c0,0.594,0.482,1.076,1.076,1.076
						C235.163,193.486,235.645,193.005,235.645,192.411z M238.872,192.411c0-0.594-0.482-1.076-1.076-1.076
						c-0.594,0-1.076,0.482-1.076,1.076c0,0.594,0.482,1.076,1.076,1.076C238.39,193.486,238.872,193.005,238.872,192.411z
						 M242.099,192.411c0-0.594-0.482-1.076-1.076-1.076c-0.594,0-1.076,0.482-1.076,1.076c0,0.594,0.481,1.076,1.076,1.076
						C241.618,193.486,242.099,193.005,242.099,192.411z"/>
				</g>
			</g>
		</g>
		<g>
			<g>
				
					<rect x="226.461" y="205.081" style="fill:#FFFFFF;stroke:#263238;stroke-linecap:round;stroke-linejoin:round;stroke-miterlimit:10;" width="67.769" height="42.541"/>
				
					<rect x="226.461" y="205.081" style="fill:#B8B8B8;stroke:#263238;stroke-linecap:round;stroke-linejoin:round;stroke-miterlimit:10;" width="67.769" height="7.513"/>
			</g>
			
				<circle style="fill:#92E3A9;stroke:#263238;stroke-linecap:round;stroke-linejoin:round;stroke-miterlimit:10;" cx="241.346" cy="228.689" r="9.948"/>
			
				<line style="fill:#FFFFFF;stroke:#263238;stroke-linecap:round;stroke-linejoin:round;stroke-miterlimit:10;" x1="255.008" y1="227.23" x2="288.76" y2="227.23"/>
			
				<line style="fill:#FFFFFF;stroke:#263238;stroke-linecap:round;stroke-linejoin:round;stroke-miterlimit:10;" x1="255.008" y1="231.74" x2="278.354" y2="231.74"/>
		</g>
		<g>
			
				<rect x="271.725" y="113.772" style="fill:#B8B8B8;stroke:#263238;stroke-linecap:round;stroke-linejoin:round;stroke-miterlimit:10;" width="95.77" height="51.391"/>
			
				<rect x="271.725" y="113.772" style="fill:#828282;stroke:#263238;stroke-linecap:round;stroke-linejoin:round;stroke-miterlimit:10;" width="95.77" height="6.988"/>
			<g>
				
					<rect x="288.814" y="135.312" style="fill:#92E3A9;stroke:#263238;stroke-linecap:round;stroke-linejoin:round;stroke-miterlimit:10;" width="4.248" height="7.515"/>
				
					<rect x="295.185" y="135.312" style="fill:#92E3A9;stroke:#263238;stroke-linecap:round;stroke-linejoin:round;stroke-miterlimit:10;" width="4.248" height="7.515"/>
				
					<rect x="301.557" y="135.312" style="fill:#92E3A9;stroke:#263238;stroke-linecap:round;stroke-linejoin:round;stroke-miterlimit:10;" width="4.248" height="7.515"/>
				
					<rect x="307.929" y="135.312" style="fill:#92E3A9;stroke:#263238;stroke-linecap:round;stroke-linejoin:round;stroke-miterlimit:10;" width="4.248" height="7.515"/>
				
					<rect x="314.301" y="135.312" style="fill:#92E3A9;stroke:#263238;stroke-linecap:round;stroke-linejoin:round;stroke-miterlimit:10;" width="4.248" height="7.515"/>
				
					<rect x="320.673" y="135.312" style="fill:#92E3A9;stroke:#263238;stroke-linecap:round;stroke-linejoin:round;stroke-miterlimit:10;" width="4.248" height="7.515"/>
				
					<rect x="327.044" y="135.312" style="fill:#92E3A9;stroke:#263238;stroke-linecap:round;stroke-linejoin:round;stroke-miterlimit:10;" width="4.248" height="7.515"/>
				
					<rect x="333.416" y="135.312" style="fill:#92E3A9;stroke:#263238;stroke-linecap:round;stroke-linejoin:round;stroke-miterlimit:10;" width="4.248" height="7.515"/>
				
					<rect x="339.788" y="135.312" style="fill:#92E3A9;stroke:#263238;stroke-linecap:round;stroke-linejoin:round;stroke-miterlimit:10;" width="4.248" height="7.515"/>
				
					<rect x="346.16" y="135.312" style="fill:#92E3A9;stroke:#263238;stroke-linecap:round;stroke-linejoin:round;stroke-miterlimit:10;" width="4.248" height="7.515"/>
			</g>
		</g>
		<g>
			<rect x="229.816" y="72.929" style="fill:#FFFFFF;stroke:#263238;stroke-miterlimit:10;" width="28.022" height="31.068"/>
			
				<rect x="229.816" y="91.455" style="fill:#D9D9D9;stroke:#263238;stroke-linecap:round;stroke-linejoin:round;stroke-miterlimit:10;" width="28.022" height="12.542"/>
			<rect x="238.319" y="61.51" style="fill:#FFFFFF;stroke:#263238;stroke-miterlimit:10;" width="11.016" height="11.689"/>
			<rect x="242.192" y="1.014" style="fill:#263238;stroke:#263238;stroke-miterlimit:10;" width="3.271" height="60.115"/>
		</g>
	</g>
</g>
<g id="Bugs">
	<g>
		<g>
			<path style="fill:#263238;" d="M316.487,210.836c-1.626,1.604-2.646,3.814-2.704,6.259h18.189
				c-0.06-2.523-1.149-4.792-2.866-6.407c0.957-0.898,1.75-2.247,1.75-4.159c0-0.552-0.447-1-1-1s-1,0.448-1,1
				c0,1.516-0.697,2.41-1.384,2.935c-1.351-0.794-2.918-1.258-4.595-1.258c-1.754,0-3.388,0.507-4.779,1.369
				c-0.724-0.506-1.521-1.429-1.521-3.047c0-0.552-0.447-1-1-1s-1,0.448-1,1C314.579,208.547,315.46,209.941,316.487,210.836z"/>
			<path style="fill:#263238;" d="M342.785,231.758c-1.383-1.79-3.201-2.779-4.655-3.321c-0.461-2.292-1.439-4.393-2.79-6.202
				c1.416-0.558,3.129-1.538,4.445-3.243c2.606-3.372,2.637-8.669,2.637-8.893c0-0.552-0.447-0.999-0.999-0.999h-0.001
				c-0.552,0-0.999,0.447-1,0.999c0,0.048-0.034,4.844-2.219,7.671c-1.253,1.622-3.009,2.435-4.25,2.832
				c-0.646-0.655-1.353-1.247-2.105-1.781c0.009-0.051,0.013-0.103,0.02-0.154h-17.982c0.008,0.051,0.012,0.103,0.02,0.154
				c-0.805,0.57-1.552,1.213-2.234,1.922c-1.227-0.33-3.302-1.129-4.728-2.974c-2.185-2.827-2.219-7.622-2.219-7.671
				c-0.001-0.552-0.448-0.999-1-0.999h-0.001c-0.552,0.001-0.999,0.448-0.999,0.999c0,0.224,0.03,5.521,2.637,8.893
				c1.469,1.901,3.429,2.9,4.921,3.419c-1.314,1.813-2.25,3.912-2.684,6.193c-1.373,0.571-2.982,1.533-4.236,3.155
				c-2.606,3.373-2.636,8.669-2.636,8.893c0,0.552,0.448,1,1,1c0.552,0,0.999-0.448,0.999-1c0-0.048,0.025-4.831,2.219-7.67
				c0.701-0.907,1.561-1.558,2.4-2.029c-0.007,0.188-0.029,0.371-0.029,0.561c0,1.661,0.059,3.426,0.247,5.196
				c-1.073,0.983-2.21,2.38-2.839,4.244c-1.362,4.039,0.339,9.055,0.412,9.266c0.143,0.413,0.53,0.673,0.945,0.673
				c0.107,0,0.218-0.018,0.325-0.055c0.522-0.18,0.8-0.749,0.62-1.271c-0.016-0.045-1.55-4.589-0.408-7.975
				c0.31-0.917,0.786-1.697,1.311-2.351c1.254,6.667,4.901,12.722,14.946,12.722c11.12,0,14.292-6.539,15.197-13.063
				c0.632,0.689,1.225,1.546,1.606,2.584c1.232,3.354-0.181,7.937-0.195,7.983c-0.165,0.527,0.128,1.088,0.654,1.254
				c0.1,0.031,0.201,0.046,0.301,0.046c0.424,0,0.818-0.272,0.952-0.699c0.067-0.213,1.634-5.273,0.165-9.274
				c-0.737-2.006-2.059-3.447-3.233-4.406c0.112-1.731,0.113-3.4,0.113-4.876c0-0.262-0.026-0.518-0.039-0.777
				c0.961,0.48,1.989,1.191,2.804,2.245c2.184,2.827,2.218,7.622,2.218,7.671c0.001,0.552,0.448,0.998,1,0.998h0.001
				c0.552,0,0.999-0.448,0.999-0.999C345.421,240.427,345.39,235.13,342.785,231.758z"/>
		</g>
		<g>
			<path style="fill:#263238;" d="M352.986,205.625c-0.442,0.331-0.533,0.957-0.202,1.4c0.331,0.443,0.957,0.533,1.4,0.202
				c1.615-1.208,2.204-2.748,2.306-4.107c2.258,0.342,4.639-0.164,6.633-1.582l-10.891-14.569c-1.985,1.559-3.15,3.789-3.416,6.132
				c-1.293-0.229-2.848-0.057-4.379,1.088c-0.442,0.331-0.533,0.957-0.202,1.4s0.957,0.533,1.4,0.202
				c1.214-0.908,2.348-0.885,3.179-0.649c0.173,1.557,0.74,3.09,1.744,4.433c1.05,1.405,2.434,2.41,3.958,3.008
				C354.543,203.465,354.281,204.657,352.986,205.625z"/>
			<path style="fill:#263238;" d="M378.944,200.815c-4.096-10.682-11.798-19.571-21.621-25.184
				c-1.389,1.657-2.396,3.552-2.991,5.564c-1.295-0.8-3.105-1.585-5.259-1.619c-4.261-0.069-8.522,3.079-8.701,3.212
				c-0.442,0.33-0.532,0.956-0.203,1.399l0.001,0.001c0.33,0.442,0.956,0.533,1.398,0.203c0.039-0.029,3.9-2.873,7.473-2.816
				c2.05,0.033,3.752,0.952,4.813,1.708c-0.138,0.91-0.189,1.831-0.166,2.753c-0.046,0.024-0.09,0.052-0.136,0.076l10.766,14.402
				c0.036-0.037,0.076-0.071,0.111-0.109c0.939,0.303,1.901,0.517,2.877,0.639c0.471,1.18,1.073,3.321,0.449,5.567
				c-0.957,3.443-4.777,6.341-4.815,6.37c-0.441,0.331-0.532,0.957-0.201,1.399l0.001,0.001c0.331,0.442,0.957,0.532,1.399,0.202
				c0.179-0.134,4.404-3.33,5.544-7.436c0.643-2.315,0.27-4.483-0.208-5.988c2.239-0.033,4.481-0.54,6.567-1.558
				C376.842,200.075,377.821,200.531,378.944,200.815z"/>
		</g>
	</g>
</g>
<g id="Magnifying_Glass">
	<g>
		<g>
			
				<circle style="fill:#263238;stroke:#263238;stroke-linecap:round;stroke-linejoin:round;stroke-miterlimit:10;" cx="419.175" cy="454.482" r="15.892"/>
			<circle style="fill:#FFFFFF;stroke:#263238;stroke-miterlimit:10;" cx="419.175" cy="454.482" r="11.53"/>
		</g>
		<g>
			
				<circle style="fill:#263238;stroke:#263238;stroke-linecap:round;stroke-linejoin:round;stroke-miterlimit:10;" cx="464.025" cy="454.482" r="15.892"/>
			<circle style="fill:#FFFFFF;stroke:#263238;stroke-miterlimit:10;" cx="464.025" cy="454.482" r="11.53"/>
		</g>
		
			<rect x="419.136" y="250.008" transform="matrix(0.8989 0.4381 -0.4381 0.8989 172.1706 -156.6137)" style="fill:#263238;stroke:#263238;stroke-linecap:round;stroke-linejoin:round;stroke-miterlimit:10;" width="12.793" height="89.7"/>
		<g>
			
				<rect x="385.123" y="213.036" style="fill:#263238;stroke:#263238;stroke-linecap:round;stroke-linejoin:round;stroke-miterlimit:10;" width="30.697" height="10.834"/>
			<path style="fill:#92E3A9;stroke:#263238;stroke-linecap:round;stroke-linejoin:round;stroke-miterlimit:10;" d="
				M461.865,228.385h-50.258v-19.863h50.258c5.485,0,9.931,4.446,9.931,9.931l0,0C471.796,223.938,467.35,228.385,461.865,228.385z"
				/>
			<path style="fill:#92E3A9;stroke:#263238;stroke-linecap:round;stroke-linejoin:round;stroke-miterlimit:10;" d="
				M332.907,163.239c-30.494,0-55.214,24.72-55.214,55.214s24.72,55.214,55.214,55.214c30.494,0,55.214-24.72,55.214-55.214
				S363.401,163.239,332.907,163.239z M332.907,267.753c-27.227,0-49.299-22.072-49.299-49.299s22.072-49.299,49.299-49.299
				c27.227,0,49.299,22.072,49.299,49.299S360.135,267.753,332.907,267.753z"/>
		</g>
		<g>
			<path style="fill:#92E3A9;stroke:#263238;stroke-linecap:round;stroke-linejoin:round;stroke-miterlimit:10;" d="
				M436.986,294.459l-18.413-8.973l34.808-71.429c2.478-5.085,8.608-7.198,13.693-4.72l0,0c5.085,2.478,7.198,8.608,4.72,13.693
				L436.986,294.459z"/>
			<circle style="fill:#FFFFFF;stroke:#263238;stroke-miterlimit:10;" cx="461.906" cy="220.343" r="4.944"/>
		</g>
		<g>
			<path style="fill:#92E3A9;stroke:#263238;stroke-linecap:round;stroke-linejoin:round;stroke-miterlimit:10;" d="
				M479.456,372.331l-33.831,35.345l-46.57-66.889c-3.362-4.829-2.724-11.385,1.507-15.475l0,0
				c4.251-4.109,10.863-4.507,15.576-0.938L479.456,372.331z"/>
			<path style="fill:#FFFFFF;stroke:#263238;stroke-miterlimit:10;" d="M410.346,328.253c-2.566-0.933-5.403,0.39-6.336,2.956
				c-0.934,2.566,0.39,5.403,2.956,6.336c2.566,0.933,5.403-0.39,6.336-2.956C414.236,332.024,412.912,329.187,410.346,328.253z"/>
		</g>
		<polygon style="fill:#92E3A9;stroke:#263238;stroke-linecap:round;stroke-linejoin:round;stroke-miterlimit:10;" points="
			453.663,348.89 392.689,458.367 483.802,458.367 483.802,348.89 		"/>
		<path style="fill:#FFFFFF;stroke:#263238;stroke-miterlimit:10;" d="M448.186,403.665L448.186,403.665
			c0-3.348,2.714-6.062,6.062-6.062h29.554V348.89h-16.715l-53.82,96.631h70.535v-35.794h-29.554
			C450.9,409.727,448.186,407.013,448.186,403.665z"/>
	</g>
</g>
<g id="Character_1_">
	<g>
		<g>
			<path style="fill:#263238;stroke:#263238;stroke-linecap:round;stroke-linejoin:round;stroke-miterlimit:10;" d="M84.962,333.763
				c0,0-1.496,53.004-2.247,62.26c-0.751,9.256-3.002,33.522-3.502,38.025c-0.5,4.503,0.5,17.262,0.5,17.262
				c1.251,1.251,1.251,1.251,1.251,1.251l-1.001,6.254c0,0,8.005,5.003,12.008,6.504c4.003,1.501-1.001,3.502-4.503,4.003
				c-3.502,0.5-6.254,0.5-10.257-0.5c-4.003-1.001-9.006-2.752-10.757-3.002c-1.751-0.25-2.752-2.502-2.752-5.254
				s0.25-3.002,0-4.253c-0.25-1.251,1.251-6.504,1.501-7.755c0.25-1.251-3.502-29.52-2.752-38.526
				c0.75-9.006,1.001-21.264,1.001-22.515c0-1.251,0.5-14.26,0.5-14.26s-4.253,28.769-4.753,29.77
				c-0.5,1.001-8.756,42.779-9.006,44.78c-0.25,2.001,0.751,4.253,0.5,5.754c-0.25,1.501-1.501,6.004-1.501,6.004
				s0.75,6.755,3.002,9.757c2.251,3.002,2.752,5.504,1.501,6.504c-1.251,1.001-4.003,1.001-7.255,0.25
				c-3.252-0.751-3.252-0.25-6.254-2.752c-3.002-2.502-4.003-9.757-4.003-10.507c0-0.75-1.251-3.252-1.251-6.004
				c0-2.752,0-1.501,1.001-5.504c1.001-4.003,0.751-19.513,1.001-28.519c0.25-9.006,3.252-27.018,3.252-30.52
				c0-3.502,1.501-55.786,1.501-55.786S65.695,343.8,84.962,333.763z"/>
			<g>
				<path style="fill:#FFFFFF;stroke:#263238;stroke-linecap:round;stroke-linejoin:round;stroke-miterlimit:10;" d="M73.82,460.953
					c3.994-0.182,6.144-2.139,6.144-2.139s8.005,5.003,12.008,6.504c4.003,1.501-1.001,3.502-4.503,4.003
					c-3.502,0.5-6.254,0.5-10.257-0.5c-4.003-1.001-9.006-2.752-10.757-3.002c-1.751-0.25-2.752-2.502-2.752-5.254
					c0-1.155,0.044-1.867,0.077-2.4C66.549,459.336,71.154,461.074,73.82,460.953z"/>
				<path style="fill:#FFFFFF;stroke:#263238;stroke-linecap:round;stroke-linejoin:round;stroke-miterlimit:10;" d="
					M67.465,462.951c4.539,0.363,9.747,5.87,16.704,5.084c4.655-0.526,7.462-1.565,8.815-2.197c1.885,1.41-2.405,3.039-5.516,3.483
					c-3.502,0.5-6.254,0.5-10.257-0.5c-4.003-1.001-9.006-2.752-10.757-3.002c-1.268-0.181-2.136-1.42-2.522-3.131
					C64.748,462.742,65.882,462.824,67.465,462.951z"/>
			</g>
			<g>
				<path style="fill:#FFFFFF;stroke:#263238;stroke-linecap:round;stroke-linejoin:round;stroke-miterlimit:10;" d="
					M41.319,462.769c5.135-0.048,7.874-3.204,7.874-3.204s0.751,6.755,3.002,9.756c2.251,3.002,2.752,5.504,1.501,6.504
					c-1.251,1.001-4.003,1.001-7.255,0.25c-3.252-0.751-3.252-0.25-6.254-2.752c-3.002-2.502-4.003-9.757-4.003-10.507
					c0-0.224-0.117-0.62-0.274-1.117C37.271,462.282,39.097,462.79,41.319,462.769z"/>
				<path style="fill:#FFFFFF;stroke:#263238;stroke-linecap:round;stroke-linejoin:round;stroke-miterlimit:10;" d="
					M40.187,473.324c-1.333-1.111-2.27-3.16-2.902-5.16c0.013,0.019,0.026,0.033,0.039,0.052c1.634,2.36,3.813,5.084,9.26,6.355
					c3.877,0.905,6.55,0.063,7.774-0.498c0.034,0.765-0.184,1.37-0.662,1.753c-1.251,1.001-4.003,1.001-7.255,0.25
					C43.189,475.325,43.189,475.826,40.187,473.324z"/>
			</g>
		</g>
		<path style="fill:#FFFFFF;stroke:#263238;stroke-miterlimit:10;" d="M49.934,268.616c0,0-12.611,7.614-13.087,9.518
			c-0.476,1.904,5.853,72.245,5.853,72.245l27.364,3.093l1.941-4.869l2.664,4.44c0,0,6.443-0.348,8.584-1.776
			c2.142-1.428,2.072-15.688,2.072-15.688s-2.793-50.783-3.982-57.445c-1.19-6.663-11.183-9.042-11.183-9.042
			S54.455,265.76,49.934,268.616z"/>
		<path style="fill:#92E3A9;stroke:#263238;stroke-linecap:round;stroke-linejoin:round;stroke-miterlimit:10;" d="M77.913,272.714
			c0,0,5.585,2.458,6.926,5.586c1.34,3.128,7.596,32.842,7.596,32.842l5.563-2.939c0,0,2.704,5.173,0.693,9.642
			c-2.011,4.468-10.724,7.82-12.958,8.267c-2.234,0.447-11.394-54.514-11.394-54.514L77.913,272.714z"/>
		<path style="fill:#FFFFFF;stroke:#263238;stroke-miterlimit:10;" d="M99.062,311.621c0,0,0.076,4.212-2.605,5.553
			c-2.681,1.341-6.032-1.341-5.585-4.468C91.318,309.578,99.062,311.621,99.062,311.621z"/>
		<g>
			<g>
				<path style="fill:#92E3A9;stroke:#263238;stroke-linecap:round;stroke-linejoin:round;stroke-miterlimit:10;" d="
					M72.301,273.375c0,0,1.871,24.486,3.807,37.833c1.981,13.66,2.141,41.164,2.141,41.164s9.994-4.283,11.659-5.473
					c1.666-1.19,0.238-24.032-1.19-31.409c-1.428-7.376-6.424-36.405-7.614-39.261c-1.19-2.855-7.138-6.424-7.138-6.424
					L72.301,273.375z"/>
				<path style="fill:#92E3A9;stroke:#263238;stroke-linecap:round;stroke-linejoin:round;stroke-miterlimit:10;" d="
					M53.741,269.329c0,0,7.034,17.611,10.365,32.126c3.331,14.515,0.58,52.345,0.58,52.345s-8.804,0.714-15.228,0
					c-6.424-0.714-12.135-2.142-12.135-2.142s-4.759-71.621-3.331-73.287c1.428-1.666,18.56-11.659,18.56-11.659L53.741,269.329z"/>
			</g>
			<path style="fill:none;stroke:#263238;stroke-linecap:round;stroke-linejoin:round;stroke-miterlimit:10;" d="M61.036,305.212
				c1.456,2.591,2.327,4.182,2.327,4.182"/>
			<path style="fill:none;stroke:#263238;stroke-linecap:round;stroke-linejoin:round;stroke-miterlimit:10;" d="M45.42,272.324
				c0,0,3.893,12.695,8.971,21.328c1.828,3.108,3.503,6.018,4.897,8.47"/>
			<path style="fill:none;stroke:#263238;stroke-linecap:round;stroke-linejoin:round;stroke-miterlimit:10;" d="M78.466,286.889
				c-0.206,5.36-0.694,14.36-1.73,18.273"/>
			<path style="fill:none;stroke:#263238;stroke-linecap:round;stroke-linejoin:round;stroke-miterlimit:10;" d="M78.597,282.649
				c0,0-0.02,0.975-0.071,2.537"/>
			<path style="fill:none;stroke:#263238;stroke-linecap:round;stroke-linejoin:round;stroke-miterlimit:10;" d="M38.819,349.342
				c0,0,8.971,3.555,24.883,1.862"/>
			<path style="fill:none;stroke:#263238;stroke-linecap:round;stroke-linejoin:round;stroke-miterlimit:10;" d="M78.936,348.496
				c0,0,4.401-0.677,11.51-4.401"/>
		</g>
		<g>
			<path style="fill:#FFFFFF;stroke:#263238;stroke-miterlimit:10;" d="M54.455,263.381c0,0-3.331,0.952-4.521,2.617
				s-0.714,8.328-0.714,9.28c0,0.952,2.855,9.042,2.855,9.042l12.849-7.852l12.373,5.473c0,0-0.238-6.662-3.331-12.135
				C70.873,264.333,57.072,262.191,54.455,263.381z"/>
			<path style="fill:#B8B8B8;stroke:#263238;stroke-linecap:round;stroke-linejoin:round;stroke-miterlimit:10;" d="M59.963,227.936
				c3.594,0.375,6.8,2.421,8.748,5.465c1.496,2.339,3.075,4.967,3.055,5.62c-0.038,1.238-0.395,2.775-0.314,3.254
				c0.081,0.479,3.743,6.142,3.546,7.899c-0.197,1.757-0.922,9.882-2.374,12.959c-1.452,3.076-2.769,3.298-2.769,3.298
				s0.97,8.475,0.242,10.418c-0.729,1.943-3.157,5.099-4.614,4.614c-1.457-0.486-8.713-9.381-9.895-12.014
				c-1.182-2.633-3.613-11.951-3.613-11.951s-1.88-2.392-2.92-3.448c-1.04-1.056-3.905-3.476-5.193-9.661
				c-1.288-6.186,3.731-12.941,8.857-15.405C55.082,227.848,57.662,227.696,59.963,227.936z"/>
			<path style="fill:#B8B8B8;stroke:#263238;stroke-linecap:round;stroke-linejoin:round;stroke-miterlimit:10;" d="M68.66,243.977
				c0,0,3.622,5.423,3.183,5.743c-0.439,0.32-1.674,1.759-4.05,1.544c-2.376-0.216-2.577-1.413-2.577-1.413"/>
			<path style="fill:#263238;stroke:#263238;stroke-linecap:round;stroke-linejoin:round;stroke-miterlimit:10;" d="M69.855,266.431
				c0,0-1.836,0.063-3.334-0.054c-1.497-0.117-8.051-3.939-8.051-3.939l11.869,12.711L69.855,266.431z"/>
			<path style="fill:none;stroke:#263238;stroke-linecap:round;stroke-linejoin:round;stroke-miterlimit:10;" d="M62.297,240.679
				c0,0-3.436-1.392-4.487,2.602"/>
			<path style="fill:none;stroke:#263238;stroke-linecap:round;stroke-linejoin:round;stroke-miterlimit:10;" d="M71.12,238.314
				c-1.859-1.534-4.053,0.682-4.053,0.682"/>
			<path style="fill:#263238;" d="M60.708,245.747c0.117,0.694,0.56,1.199,0.99,1.126c0.43-0.072,0.684-0.694,0.567-1.388
				c-0.117-0.694-0.56-1.199-0.99-1.126C60.845,244.431,60.592,245.052,60.708,245.747z"/>
			<path style="fill:#263238;" d="M69.174,243.657c0.107,0.635,0.512,1.096,0.906,1.03c0.393-0.066,0.625-0.635,0.518-1.27
				c-0.107-0.635-0.512-1.096-0.906-1.03C69.299,242.453,69.066,243.022,69.174,243.657z"/>
			<path style="fill:#263238;stroke:#263238;stroke-linecap:round;stroke-linejoin:round;stroke-miterlimit:10;" d="M53.09,256.079
				c0,0-0.599,0.628-1.311,1.173c-0.506-0.636-1.887-2.351-2.725-3.202c-1.04-1.056-3.905-3.476-5.193-9.661
				c-1.288-6.186,3.731-12.941,8.857-15.405c2.949-1.417,6.233-1.3,8.893-0.804c-0.104,0.338-0.588,0.778-2.046,1.251
				c-3.152,1.023-7.246,0.112-9.039,1.891c-1.794,1.779-1.906,6.231,0.152,7.485c2.058,1.254,5.201,2.396,3.987,4.693
				c-1.214,2.298-1.709,4.474-1.629,4.953c0.081,0.479,0.88,0.837,0.181,1.078c-0.698,0.241-1.616,0.641-2.156-0.376
				c-0.541-1.017-2.739-2.371-3.374-0.294c-0.635,2.077,0.945,4.15,2.264,5.406C51.273,255.523,53.09,256.079,53.09,256.079z"/>
			<path style="fill:none;stroke:#263238;stroke-linecap:round;stroke-linejoin:round;stroke-miterlimit:10;" d="M70.96,254.629
				c0,0-2.861,3.26-7.535-0.499"/>
			<path style="fill:none;stroke:#263238;stroke-miterlimit:10;" d="M64.768,241.416c0,0-7.744,1.331-7.986,2.662
				c-0.242,1.331,0.726,4.114,1.573,4.719c0.847,0.605,6.776-1.21,7.623-1.936S65.494,241.537,64.768,241.416z"/>
			<path style="fill:none;stroke:#263238;stroke-miterlimit:10;" d="M67.672,240.811l2.299,5.082c0,0,4.961-1.089,5.082-1.936
				c0.121-0.847-0.484-4.356-1.573-4.598C72.391,239.117,68.761,239.843,67.672,240.811z"/>
			<line style="fill:none;stroke:#263238;stroke-miterlimit:10;" x1="64.768" y1="241.416" x2="67.672" y2="240.811"/>
			<line style="fill:none;stroke:#263238;stroke-miterlimit:10;" x1="56.782" y1="244.078" x2="49.643" y2="247.95"/>
		</g>
		<g>
			<path style="fill:#B8B8B8;stroke:#263238;stroke-linecap:round;stroke-linejoin:round;stroke-miterlimit:10;" d="M62.488,313.678
				c0,0,3.056-3.595,4.673-4.314c1.618-0.719,5.572-1.078,7.01-0.899c1.438,0.18,4.853,0.539,4.853,1.977
				c0,1.438,0.041,2.47-1.438,1.618c-1.479-0.852-3.775-0.539-4.314-0.539c-0.539,0,3.056,2.516,2.876,3.415
				c-0.18,0.899-2.516,2.337-4.134,3.954c-1.618,1.618-2.157,2.157-3.235,1.977c-1.079-0.18-2.337-1.618-2.337-1.618
				s-1.258,1.258-2.876,1.618c-1.618,0.359-3.595-0.539-3.595-0.539l-2.157,1.258l-0.899-5.572L62.488,313.678z"/>
			
				<line style="fill:none;stroke:#263238;stroke-linecap:round;stroke-linejoin:round;stroke-miterlimit:10;" x1="67.521" y1="315.835" x2="70.757" y2="319.25"/>
			
				<line style="fill:none;stroke:#263238;stroke-linecap:round;stroke-linejoin:round;stroke-miterlimit:10;" x1="70.217" y1="313.318" x2="73.453" y2="316.913"/>
			
				<line style="fill:none;stroke:#263238;stroke-linecap:round;stroke-linejoin:round;stroke-miterlimit:10;" x1="73.273" y1="311.521" x2="71.116" y2="310.263"/>
		</g>
		<polygon style="fill:#263238;stroke:#263238;stroke-linecap:round;stroke-linejoin:round;stroke-miterlimit:10;" points="
			89.763,321.547 70.353,326.135 85.045,298.76 104.456,294.172 		"/>
		<polygon style="fill:#FFFFFF;stroke:#263238;stroke-miterlimit:10;" points="59.628,323.599 55.412,324.096 54.923,314.777 
			59.139,314.281 		"/>
		<path style="fill:#92E3A9;stroke:#263238;stroke-linecap:round;stroke-linejoin:round;stroke-miterlimit:10;" d="M38.403,275.572
			c0,0-5.932,1.438-7.549,7.01c-1.618,5.572-9.706,46.374-8.987,48.891c0.719,2.516,2.696,3.954,3.954,4.314
			s31.057-10.697,31.057-10.697l-0.719-10.425l-15.06-0.087l5.033-17.615"/>
		
			<line style="fill:#92E3A9;stroke:#263238;stroke-linecap:round;stroke-linejoin:round;stroke-miterlimit:10;" x1="41.099" y1="314.577" x2="33.37" y2="313.678"/>
		<g>
			<path style="fill:#B8B8B8;stroke:#263238;stroke-linecap:round;stroke-linejoin:round;stroke-miterlimit:10;" d="M97.257,310.001
				c0,0,1.955,0.81,1.804,1.621c-0.15,0.81-2.857,2.269-4.361,2.593c-1.504,0.324-1.203-1.621,0-2.107
				C95.904,311.621,97.257,310.001,97.257,310.001z"/>
			<path style="fill:#B8B8B8;stroke:#263238;stroke-linecap:round;stroke-linejoin:round;stroke-miterlimit:10;" d="M97.998,308.203
				c0,0,1.955,0.81,1.804,1.621c-0.15,0.81-2.857,2.269-4.361,2.593c-1.504,0.324-1.203-1.621,0-2.107
				C96.645,309.823,97.998,308.203,97.998,308.203z"/>
			<path style="fill:#B8B8B8;stroke:#263238;stroke-linecap:round;stroke-linejoin:round;stroke-miterlimit:10;" d="M98.807,305.981
				c0,0,2.337,0.899,2.157,1.797c-0.18,0.899-3.415,2.517-5.213,2.876c-1.798,0.359-1.438-1.797,0-2.337
				C97.19,307.779,98.807,305.981,98.807,305.981z"/>
			<path style="fill:#B8B8B8;stroke:#263238;stroke-linecap:round;stroke-linejoin:round;stroke-miterlimit:10;" d="M99.336,303.971
				c0,0,2.337,0.899,2.157,1.798c-0.18,0.899-3.415,2.516-5.213,2.876c-1.797,0.359-1.438-1.797,0-2.337
				C97.718,305.769,99.336,303.971,99.336,303.971z"/>
		</g>
	</g>
</g>
</svg>
